<?xml version="1.0" encoding="utf-8" standalone="no"?>
<!DOCTYPE svg PUBLIC "-//W3C//DTD SVG 1.1//EN"
  "http://www.w3.org/Graphics/SVG/1.1/DTD/svg11.dtd">
<svg xmlns:xlink="http://www.w3.org/1999/xlink" width="720pt" height="792pt" viewBox="0 0 720 792" xmlns="http://www.w3.org/2000/svg" version="1.1">
 <metadata>
  <rdf:RDF xmlns:dc="http://purl.org/dc/elements/1.1/" xmlns:cc="http://creativecommons.org/ns#" xmlns:rdf="http://www.w3.org/1999/02/22-rdf-syntax-ns#">
   <cc:Work>
    <dc:type rdf:resource="http://purl.org/dc/dcmitype/StillImage"/>
    <dc:date>2023-02-24T13:42:51.055109</dc:date>
    <dc:format>image/svg+xml</dc:format>
    <dc:creator>
     <cc:Agent>
      <dc:title>Matplotlib v3.6.3, https://matplotlib.org/</dc:title>
     </cc:Agent>
    </dc:creator>
   </cc:Work>
  </rdf:RDF>
 </metadata>
 <defs>
  <style type="text/css">*{stroke-linejoin: round; stroke-linecap: butt}</style>
 </defs>
 <g id="figure_1">
  <g id="patch_1">
   <path d="M 0 792 
L 720 792 
L 720 0 
L 0 0 
z
"/>
  </g>
  <g id="axes_1">
   <g id="line2d_1">
    <defs>
     <path id="m1535f183f4" d="M 0 3.5 
C 0.928211 3.5 1.81853 3.131218 2.474874 2.474874 
C 3.131218 1.81853 3.5 0.928211 3.5 0 
C 3.5 -0.928211 3.131218 -1.81853 2.474874 -2.474874 
C 1.81853 -3.131218 0.928211 -3.5 0 -3.5 
C -0.928211 -3.5 -1.81853 -3.131218 -2.474874 -2.474874 
C -3.131218 -1.81853 -3.5 -0.928211 -3.5 0 
C -3.5 0.928211 -3.131218 1.81853 -2.474874 2.474874 
C -1.81853 3.131218 -0.928211 3.5 0 3.5 
z
" style="stroke: #ffffff; stroke-opacity: 0.4"/>
    </defs>
    <g clip-path="url(#p1127ff13e4)">
     <use xlink:href="#m1535f183f4" x="438.795709" y="465.784373" style="fill: #ffffff; fill-opacity: 0.4; stroke: #ffffff; stroke-opacity: 0.4"/>
    </g>
   </g>
   <g id="line2d_2">
    <g clip-path="url(#p1127ff13e4)">
     <use xlink:href="#m1535f183f4" x="566.634571" y="465.784373" style="fill: #ffffff; fill-opacity: 0.4; stroke: #ffffff; stroke-opacity: 0.4"/>
    </g>
   </g>
   <g id="line2d_3">
    <g clip-path="url(#p1127ff13e4)">
     <use xlink:href="#m1535f183f4" x="502.71514" y="337.945511" style="fill: #ffffff; fill-opacity: 0.4; stroke: #ffffff; stroke-opacity: 0.4"/>
    </g>
   </g>
   <g id="line2d_4">
    <g clip-path="url(#p1127ff13e4)">
     <use xlink:href="#m1535f183f4" x="566.634571" y="337.945511" style="fill: #ffffff; fill-opacity: 0.4; stroke: #ffffff; stroke-opacity: 0.4"/>
    </g>
   </g>
   <g id="patch_2">
    <path d="M 438.795709 608.712566 
C 476.700709 608.712566 513.058321 593.65275 539.861204 566.849868 
C 566.664086 540.046985 581.723902 503.689373 581.723902 465.784373 
C 581.723902 427.879373 566.664086 391.521761 539.861204 364.718879 
C 513.058321 337.915996 476.700709 322.85618 438.795709 322.85618 
C 400.890709 322.85618 364.533097 337.915996 337.730214 364.718879 
C 310.927332 391.521761 295.867516 427.879373 295.867516 465.784373 
C 295.867516 503.689373 310.927332 540.046985 337.730214 566.849868 
C 364.533097 593.65275 400.890709 608.712566 438.795709 608.712566 
L 438.795709 608.712566 
z
" clip-path="url(#p1127ff13e4)" style="fill: none; stroke-dasharray: 1.5,2.475; stroke-dashoffset: 0; stroke: #333333; stroke-width: 1.5; stroke-linejoin: miter"/>
   </g>
   <g id="patch_3">
    <path d="M 502.71514 480.873704 
C 540.62014 480.873704 576.977752 465.813888 603.780635 439.011006 
C 630.583517 412.208123 645.643333 375.850511 645.643333 337.945511 
C 645.643333 300.040511 630.583517 263.682899 603.780635 236.880016 
C 576.977752 210.077134 540.62014 195.017318 502.71514 195.017318 
C 464.81014 195.017318 428.452528 210.077134 401.649646 236.880016 
C 374.846763 263.682899 359.786947 300.040511 359.786947 337.945511 
C 359.786947 375.850511 374.846763 412.208123 401.649646 439.011006 
C 428.452528 465.813888 464.81014 480.873704 502.71514 480.873704 
L 502.71514 480.873704 
z
" clip-path="url(#p1127ff13e4)" style="fill: none; stroke-dasharray: 1.5,2.475; stroke-dashoffset: 0; stroke: #333333; stroke-width: 1.5; stroke-linejoin: miter"/>
   </g>
   <g id="patch_4">
    <path d="M 438.795709 593.623236 
C 472.698972 593.623236 505.218209 580.153327 529.191435 556.1801 
C 553.164662 532.206873 566.634571 499.687636 566.634571 465.784373 
C 566.634571 431.881111 553.164662 399.361874 529.191435 375.388647 
C 505.218209 351.41542 472.698972 337.945511 438.795709 337.945511 
C 404.892446 337.945511 372.373209 351.41542 348.399983 375.388647 
C 324.426756 399.361874 310.956847 431.881111 310.956847 465.784373 
C 310.956847 499.687636 324.426756 532.206873 348.399983 556.1801 
C 372.373209 580.153327 404.892446 593.623236 438.795709 593.623236 
L 438.795709 593.623236 
z
" clip-path="url(#p1127ff13e4)" style="fill: none; stroke-dasharray: 1.5,2.475; stroke-dashoffset: 0; stroke: #cc0099; stroke-width: 1.5; stroke-linejoin: miter"/>
   </g>
   <g id="patch_5">
    <path d="M 438.795709 593.623236 
C 472.698972 593.623236 505.218209 580.153327 529.191435 556.1801 
C 553.164662 532.206873 566.634571 499.687636 566.634571 465.784373 
C 566.634571 431.881111 553.164662 399.361874 529.191435 375.388647 
C 505.218209 351.41542 472.698972 337.945511 438.795709 337.945511 
C 404.892446 337.945511 372.373209 351.41542 348.399983 375.388647 
C 324.426756 399.361874 310.956847 431.881111 310.956847 465.784373 
C 310.956847 499.687636 324.426756 532.206873 348.399983 556.1801 
C 372.373209 580.153327 404.892446 593.623236 438.795709 593.623236 
L 438.795709 593.623236 
z
" clip-path="url(#p1127ff13e4)" style="fill: none; stroke: #cc0099; stroke-width: 1.5; stroke-linejoin: miter"/>
   </g>
   <g id="line2d_5">
    <path d="M 438.795709 465.784373 
L 566.634571 465.784373 
" clip-path="url(#p1127ff13e4)" style="fill: none; stroke: #ffcc00; stroke-opacity: 0.6; stroke-width: 5; stroke-linecap: square"/>
   </g>
   <g id="line2d_6">
    <path d="M 502.71514 337.945511 
L 566.634571 337.945511 
" clip-path="url(#p1127ff13e4)" style="fill: none; stroke: #ffcc00; stroke-opacity: 0.6; stroke-width: 5; stroke-linecap: square"/>
   </g>
   <g id="line2d_7">
    <path d="M 580.449725 680.329091 
L 139.637719 12.689091 
" clip-path="url(#p1127ff13e4)" style="fill: none; stroke-dasharray: 1.5,2.475; stroke-dashoffset: 0; stroke: #999999; stroke-width: 1.5"/>
   </g>
   <g id="line2d_8">
    <path d="M 438.795709 465.784373 
L 566.634571 465.784373 
" clip-path="url(#p1127ff13e4)" style="fill: none; stroke: #cc0099; stroke-width: 5; stroke-linecap: square"/>
   </g>
   <g id="line2d_9">
    <defs>
     <path id="m4e5e6d8a0c" d="M 0 7.5 
C 1.989023 7.5 3.896849 6.709753 5.303301 5.303301 
C 6.709753 3.896849 7.5 1.989023 7.5 0 
C 7.5 -1.989023 6.709753 -3.896849 5.303301 -5.303301 
C 3.896849 -6.709753 1.989023 -7.5 0 -7.5 
C -1.989023 -7.5 -3.896849 -6.709753 -5.303301 -5.303301 
C -6.709753 -3.896849 -7.5 -1.989023 -7.5 0 
C -7.5 1.989023 -6.709753 3.896849 -5.303301 5.303301 
C -3.896849 6.709753 -1.989023 7.5 0 7.5 
z
" style="stroke: #ffff00; stroke-opacity: 0.6"/>
    </defs>
    <g clip-path="url(#p1127ff13e4)">
     <use xlink:href="#m4e5e6d8a0c" x="438.795709" y="465.784373" style="fill-opacity: 0; stroke: #ffff00; stroke-opacity: 0.6"/>
     <use xlink:href="#m4e5e6d8a0c" x="566.634571" y="465.784373" style="fill-opacity: 0; stroke: #ffff00; stroke-opacity: 0.6"/>
    </g>
   </g>
   <g id="line2d_10">
    <defs>
     <path id="m795ddd9349" d="M 0 2 
C 0.530406 2 1.03916 1.789267 1.414214 1.414214 
C 1.789267 1.03916 2 0.530406 2 0 
C 2 -0.530406 1.789267 -1.03916 1.414214 -1.414214 
C 1.03916 -1.789267 0.530406 -2 0 -2 
C -0.530406 -2 -1.03916 -1.789267 -1.414214 -1.414214 
C -1.789267 -1.03916 -2 -0.530406 -2 0 
C -2 0.530406 -1.789267 1.03916 -1.414214 1.414214 
C -1.03916 1.789267 -0.530406 2 0 2 
z
" style="stroke: #000000"/>
    </defs>
    <g clip-path="url(#p1127ff13e4)">
     <use xlink:href="#m795ddd9349" x="438.795709" y="465.784373" style="stroke: #000000"/>
    </g>
   </g>
   <g id="line2d_11">
    <g clip-path="url(#p1127ff13e4)">
     <use xlink:href="#m795ddd9349" x="566.634571" y="465.784373" style="stroke: #000000"/>
    </g>
   </g>
   <g id="line2d_12">
    <g clip-path="url(#p1127ff13e4)">
     <use xlink:href="#m795ddd9349" x="502.71514" y="337.945511" style="stroke: #000000"/>
    </g>
   </g>
   <g id="line2d_13">
    <g clip-path="url(#p1127ff13e4)">
     <use xlink:href="#m795ddd9349" x="566.634571" y="337.945511" style="stroke: #000000"/>
    </g>
   </g>
   <g id="line2d_14">
    <g clip-path="url(#p1127ff13e4)">
     <use xlink:href="#m795ddd9349" x="360.043722" y="346.509091" style="stroke: #000000"/>
    </g>
   </g>
   <g id="line2d_15">
    <g clip-path="url(#p1127ff13e4)">
     <use xlink:href="#m795ddd9349" x="581.467127" y="457.220793" style="stroke: #000000"/>
    </g>
   </g>
   <g id="line2d_16">
    <defs>
     <path id="m8e22fe7eb7" d="M 0 1.25 
C 0.331504 1.25 0.649475 1.118292 0.883883 0.883883 
C 1.118292 0.649475 1.25 0.331504 1.25 0 
C 1.25 -0.331504 1.118292 -0.649475 0.883883 -0.883883 
C 0.649475 -1.118292 0.331504 -1.25 0 -1.25 
C -0.331504 -1.25 -0.649475 -1.118292 -0.883883 -0.883883 
C -1.118292 -0.649475 -1.25 -0.331504 -1.25 0 
C -1.25 0.331504 -1.118292 0.649475 -0.883883 0.883883 
C -0.649475 1.118292 -0.331504 1.25 0 1.25 
z
" style="stroke: #ffffff"/>
    </defs>
    <g clip-path="url(#p1127ff13e4)">
     <use xlink:href="#m8e22fe7eb7" x="438.795709" y="465.784373" style="fill: #ffffff; stroke: #ffffff"/>
    </g>
   </g>
   <g id="line2d_17">
    <g clip-path="url(#p1127ff13e4)">
     <use xlink:href="#m8e22fe7eb7" x="566.634571" y="465.784373" style="fill: #ffffff; stroke: #ffffff"/>
    </g>
   </g>
   <g id="line2d_18">
    <g clip-path="url(#p1127ff13e4)">
     <use xlink:href="#m8e22fe7eb7" x="502.71514" y="337.945511" style="fill: #ffffff; stroke: #ffffff"/>
    </g>
   </g>
   <g id="line2d_19">
    <g clip-path="url(#p1127ff13e4)">
     <use xlink:href="#m8e22fe7eb7" x="566.634571" y="337.945511" style="fill: #ffffff; stroke: #ffffff"/>
    </g>
   </g>
   <g id="line2d_20">
    <g clip-path="url(#p1127ff13e4)">
     <use xlink:href="#m8e22fe7eb7" x="360.043722" y="346.509091" style="fill: #ffffff; stroke: #ffffff"/>
    </g>
   </g>
   <g id="line2d_21">
    <g clip-path="url(#p1127ff13e4)">
     <use xlink:href="#m8e22fe7eb7" x="581.467127" y="457.220793" style="fill: #ffffff; stroke: #ffffff"/>
    </g>
   </g>
  </g>
  <g id="axes_2">
   <g id="text_1">
    <!-- $x^{2} + y^{2} - 1 = 0$ -->
    <g style="fill: #ffffff" transform="translate(295.66 737.549091) scale(0.2 -0.2)">
     <defs>
      <path id="DejaVuSans-Oblique-78" d="M 3841 3500 
L 2234 1784 
L 3219 0 
L 2559 0 
L 1819 1388 
L 531 0 
L -166 0 
L 1556 1844 
L 641 3500 
L 1300 3500 
L 1972 2234 
L 3144 3500 
L 3841 3500 
z
" transform="scale(0.015625)"/>
      <path id="DejaVuSans-32" d="M 1228 531 
L 3431 531 
L 3431 0 
L 469 0 
L 469 531 
Q 828 903 1448 1529 
Q 2069 2156 2228 2338 
Q 2531 2678 2651 2914 
Q 2772 3150 2772 3378 
Q 2772 3750 2511 3984 
Q 2250 4219 1831 4219 
Q 1534 4219 1204 4116 
Q 875 4013 500 3803 
L 500 4441 
Q 881 4594 1212 4672 
Q 1544 4750 1819 4750 
Q 2544 4750 2975 4387 
Q 3406 4025 3406 3419 
Q 3406 3131 3298 2873 
Q 3191 2616 2906 2266 
Q 2828 2175 2409 1742 
Q 1991 1309 1228 531 
z
" transform="scale(0.015625)"/>
      <path id="DejaVuSans-2b" d="M 2944 4013 
L 2944 2272 
L 4684 2272 
L 4684 1741 
L 2944 1741 
L 2944 0 
L 2419 0 
L 2419 1741 
L 678 1741 
L 678 2272 
L 2419 2272 
L 2419 4013 
L 2944 4013 
z
" transform="scale(0.015625)"/>
      <path id="DejaVuSans-Oblique-79" d="M 1588 -325 
Q 1188 -997 936 -1164 
Q 684 -1331 294 -1331 
L -159 -1331 
L -63 -850 
L 269 -850 
Q 509 -850 678 -719 
Q 847 -588 1056 -206 
L 1234 128 
L 459 3500 
L 1069 3500 
L 1650 819 
L 3256 3500 
L 3859 3500 
L 1588 -325 
z
" transform="scale(0.015625)"/>
      <path id="DejaVuSans-2212" d="M 678 2272 
L 4684 2272 
L 4684 1741 
L 678 1741 
L 678 2272 
z
" transform="scale(0.015625)"/>
      <path id="DejaVuSans-31" d="M 794 531 
L 1825 531 
L 1825 4091 
L 703 3866 
L 703 4441 
L 1819 4666 
L 2450 4666 
L 2450 531 
L 3481 531 
L 3481 0 
L 794 0 
L 794 531 
z
" transform="scale(0.015625)"/>
      <path id="DejaVuSans-3d" d="M 678 2906 
L 4684 2906 
L 4684 2381 
L 678 2381 
L 678 2906 
z
M 678 1631 
L 4684 1631 
L 4684 1100 
L 678 1100 
L 678 1631 
z
" transform="scale(0.015625)"/>
      <path id="DejaVuSans-30" d="M 2034 4250 
Q 1547 4250 1301 3770 
Q 1056 3291 1056 2328 
Q 1056 1369 1301 889 
Q 1547 409 2034 409 
Q 2525 409 2770 889 
Q 3016 1369 3016 2328 
Q 3016 3291 2770 3770 
Q 2525 4250 2034 4250 
z
M 2034 4750 
Q 2819 4750 3233 4129 
Q 3647 3509 3647 2328 
Q 3647 1150 3233 529 
Q 2819 -91 2034 -91 
Q 1250 -91 836 529 
Q 422 1150 422 2328 
Q 422 3509 836 4129 
Q 1250 4750 2034 4750 
z
" transform="scale(0.015625)"/>
     </defs>
     <use xlink:href="#DejaVuSans-Oblique-78" transform="translate(0 0.765625)"/>
     <use xlink:href="#DejaVuSans-32" transform="translate(63.645833 39.046875) scale(0.7)"/>
     <use xlink:href="#DejaVuSans-2b" transform="translate(130.398763 0.765625)"/>
     <use xlink:href="#DejaVuSans-Oblique-79" transform="translate(233.670247 0.765625)"/>
     <use xlink:href="#DejaVuSans-32" transform="translate(297.316081 39.046875) scale(0.7)"/>
     <use xlink:href="#DejaVuSans-2212" transform="translate(364.06901 0.765625)"/>
     <use xlink:href="#DejaVuSans-31" transform="translate(467.340495 0.765625)"/>
     <use xlink:href="#DejaVuSans-3d" transform="translate(550.445964 0.765625)"/>
     <use xlink:href="#DejaVuSans-30" transform="translate(653.717448 0.765625)"/>
    </g>
   </g>
   <g id="text_2">
    <!-- 011 -->
    <g style="fill: #ff0000" transform="translate(33.64 737.171591) scale(0.24 -0.24)">
     <use xlink:href="#DejaVuSans-30"/>
     <use xlink:href="#DejaVuSans-31" x="63.623047"/>
     <use xlink:href="#DejaVuSans-31" x="127.246094"/>
    </g>
   </g>
   <g id="text_3">
    <!-- $(A, B)$ -->
    <g style="fill: #ff0000" transform="translate(637.2 737.171591) scale(0.24 -0.24)">
     <defs>
      <path id="DejaVuSans-28" d="M 1984 4856 
Q 1566 4138 1362 3434 
Q 1159 2731 1159 2009 
Q 1159 1288 1364 580 
Q 1569 -128 1984 -844 
L 1484 -844 
Q 1016 -109 783 600 
Q 550 1309 550 2009 
Q 550 2706 781 3412 
Q 1013 4119 1484 4856 
L 1984 4856 
z
" transform="scale(0.015625)"/>
      <path id="DejaVuSans-Oblique-41" d="M 2356 4666 
L 3072 4666 
L 3938 0 
L 3278 0 
L 3084 1197 
L 984 1197 
L 325 0 
L -341 0 
L 2356 4666 
z
M 2584 4044 
L 1275 1722 
L 2988 1722 
L 2584 4044 
z
" transform="scale(0.015625)"/>
      <path id="DejaVuSans-2c" d="M 750 794 
L 1409 794 
L 1409 256 
L 897 -744 
L 494 -744 
L 750 256 
L 750 794 
z
" transform="scale(0.015625)"/>
      <path id="DejaVuSans-Oblique-42" d="M 1081 4666 
L 2694 4666 
Q 3350 4666 3675 4422 
Q 4000 4178 4000 3688 
Q 4000 3238 3720 2911 
Q 3441 2584 2988 2516 
Q 3375 2428 3569 2181 
Q 3763 1934 3763 1522 
Q 3763 819 3242 409 
Q 2722 0 1819 0 
L 172 0 
L 1081 4666 
z
M 1234 2228 
L 903 519 
L 1919 519 
Q 2491 519 2800 781 
Q 3109 1044 3109 1522 
Q 3109 1891 2904 2059 
Q 2700 2228 2247 2228 
L 1234 2228 
z
M 1606 4147 
L 1331 2741 
L 2272 2741 
Q 2775 2741 3058 2959 
Q 3341 3178 3341 3566 
Q 3341 3869 3150 4008 
Q 2959 4147 2541 4147 
L 1606 4147 
z
" transform="scale(0.015625)"/>
      <path id="DejaVuSans-29" d="M 513 4856 
L 1013 4856 
Q 1481 4119 1714 3412 
Q 1947 2706 1947 2009 
Q 1947 1309 1714 600 
Q 1481 -109 1013 -844 
L 513 -844 
Q 928 -128 1133 580 
Q 1338 1288 1338 2009 
Q 1338 2731 1133 3434 
Q 928 4138 513 4856 
z
" transform="scale(0.015625)"/>
     </defs>
     <use xlink:href="#DejaVuSans-28" transform="translate(0 0.125)"/>
     <use xlink:href="#DejaVuSans-Oblique-41" transform="translate(39.013672 0.125)"/>
     <use xlink:href="#DejaVuSans-2c" transform="translate(107.421875 0.125)"/>
     <use xlink:href="#DejaVuSans-Oblique-42" transform="translate(158.691406 0.125)"/>
     <use xlink:href="#DejaVuSans-29" transform="translate(227.294922 0.125)"/>
    </g>
   </g>
  </g>
 </g>
 <defs>
  <clipPath id="p1127ff13e4">
   <rect x="33.64" y="12.689091" width="667.64" height="667.64"/>
  </clipPath>
 </defs>
</svg>
