<?xml version="1.0" encoding="utf-8" standalone="no"?>
<!DOCTYPE svg PUBLIC "-//W3C//DTD SVG 1.1//EN"
  "http://www.w3.org/Graphics/SVG/1.1/DTD/svg11.dtd">
<svg xmlns:xlink="http://www.w3.org/1999/xlink" width="720pt" height="792pt" viewBox="0 0 720 792" xmlns="http://www.w3.org/2000/svg" version="1.1">
 <metadata>
  <rdf:RDF xmlns:dc="http://purl.org/dc/elements/1.1/" xmlns:cc="http://creativecommons.org/ns#" xmlns:rdf="http://www.w3.org/1999/02/22-rdf-syntax-ns#">
   <cc:Work>
    <dc:type rdf:resource="http://purl.org/dc/dcmitype/StillImage"/>
    <dc:date>2023-02-24T13:42:56.239698</dc:date>
    <dc:format>image/svg+xml</dc:format>
    <dc:creator>
     <cc:Agent>
      <dc:title>Matplotlib v3.6.3, https://matplotlib.org/</dc:title>
     </cc:Agent>
    </dc:creator>
   </cc:Work>
  </rdf:RDF>
 </metadata>
 <defs>
  <style type="text/css">*{stroke-linejoin: round; stroke-linecap: butt}</style>
 </defs>
 <g id="figure_1">
  <g id="patch_1">
   <path d="M 0 792 
L 720 792 
L 720 0 
L 0 0 
z
"/>
  </g>
  <g id="axes_1">
   <g id="line2d_1">
    <defs>
     <path id="ma6d5c973aa" d="M 0 3.5 
C 0.928211 3.5 1.81853 3.131218 2.474874 2.474874 
C 3.131218 1.81853 3.5 0.928211 3.5 0 
C 3.5 -0.928211 3.131218 -1.81853 2.474874 -2.474874 
C 1.81853 -3.131218 0.928211 -3.5 0 -3.5 
C -0.928211 -3.5 -1.81853 -3.131218 -2.474874 -2.474874 
C -3.131218 -1.81853 -3.5 -0.928211 -3.5 0 
C -3.5 0.928211 -3.131218 1.81853 -2.474874 2.474874 
C -1.81853 3.131218 -0.928211 3.5 0 3.5 
z
" style="stroke: #ffffff; stroke-opacity: 0.4"/>
    </defs>
    <g clip-path="url(#pd0da8d9607)">
     <use xlink:href="#ma6d5c973aa" x="438.795709" y="465.784373" style="fill: #ffffff; fill-opacity: 0.4; stroke: #ffffff; stroke-opacity: 0.4"/>
    </g>
   </g>
   <g id="line2d_2">
    <g clip-path="url(#pd0da8d9607)">
     <use xlink:href="#ma6d5c973aa" x="566.634571" y="465.784373" style="fill: #ffffff; fill-opacity: 0.4; stroke: #ffffff; stroke-opacity: 0.4"/>
    </g>
   </g>
   <g id="line2d_3">
    <g clip-path="url(#pd0da8d9607)">
     <use xlink:href="#ma6d5c973aa" x="502.71514" y="337.945511" style="fill: #ffffff; fill-opacity: 0.4; stroke: #ffffff; stroke-opacity: 0.4"/>
    </g>
   </g>
   <g id="line2d_4">
    <g clip-path="url(#pd0da8d9607)">
     <use xlink:href="#ma6d5c973aa" x="566.634571" y="337.945511" style="fill: #ffffff; fill-opacity: 0.4; stroke: #ffffff; stroke-opacity: 0.4"/>
    </g>
   </g>
   <g id="patch_2">
    <path d="M 438.795709 608.712566 
C 476.700709 608.712566 513.058321 593.65275 539.861204 566.849868 
C 566.664086 540.046985 581.723902 503.689373 581.723902 465.784373 
C 581.723902 427.879373 566.664086 391.521761 539.861204 364.718879 
C 513.058321 337.915996 476.700709 322.85618 438.795709 322.85618 
C 400.890709 322.85618 364.533097 337.915996 337.730214 364.718879 
C 310.927332 391.521761 295.867516 427.879373 295.867516 465.784373 
C 295.867516 503.689373 310.927332 540.046985 337.730214 566.849868 
C 364.533097 593.65275 400.890709 608.712566 438.795709 608.712566 
L 438.795709 608.712566 
z
" clip-path="url(#pd0da8d9607)" style="fill: none; stroke-dasharray: 1.5,2.475; stroke-dashoffset: 0; stroke: #333333; stroke-width: 1.5; stroke-linejoin: miter"/>
   </g>
   <g id="patch_3">
    <path d="M 502.71514 480.873704 
C 540.62014 480.873704 576.977752 465.813888 603.780635 439.011006 
C 630.583517 412.208123 645.643333 375.850511 645.643333 337.945511 
C 645.643333 300.040511 630.583517 263.682899 603.780635 236.880016 
C 576.977752 210.077134 540.62014 195.017318 502.71514 195.017318 
C 464.81014 195.017318 428.452528 210.077134 401.649646 236.880016 
C 374.846763 263.682899 359.786947 300.040511 359.786947 337.945511 
C 359.786947 375.850511 374.846763 412.208123 401.649646 439.011006 
C 428.452528 465.813888 464.81014 480.873704 502.71514 480.873704 
L 502.71514 480.873704 
z
" clip-path="url(#pd0da8d9607)" style="fill: none; stroke-dasharray: 1.5,2.475; stroke-dashoffset: 0; stroke: #333333; stroke-width: 1.5; stroke-linejoin: miter"/>
   </g>
   <g id="patch_4">
    <path d="M 438.795709 593.623236 
C 472.698972 593.623236 505.218209 580.153327 529.191435 556.1801 
C 553.164662 532.206873 566.634571 499.687636 566.634571 465.784373 
C 566.634571 431.881111 553.164662 399.361874 529.191435 375.388647 
C 505.218209 351.41542 472.698972 337.945511 438.795709 337.945511 
C 404.892446 337.945511 372.373209 351.41542 348.399983 375.388647 
C 324.426756 399.361874 310.956847 431.881111 310.956847 465.784373 
C 310.956847 499.687636 324.426756 532.206873 348.399983 556.1801 
C 372.373209 580.153327 404.892446 593.623236 438.795709 593.623236 
L 438.795709 593.623236 
z
" clip-path="url(#pd0da8d9607)" style="fill: none; stroke-dasharray: 1.5,2.475; stroke-dashoffset: 0; stroke: #cc0099; stroke-width: 1.5; stroke-linejoin: miter"/>
   </g>
   <g id="patch_5">
    <path d="M 360.043722 617.276146 
C 431.851985 617.276146 500.728834 588.746421 551.504943 537.970312 
C 602.281053 487.194203 630.810778 418.317353 630.810778 346.509091 
C 630.810778 274.700828 602.281053 205.823979 551.504943 155.04787 
C 500.728834 104.27176 431.851985 75.742035 360.043722 75.742035 
C 288.23546 75.742035 219.35861 104.27176 168.582501 155.04787 
C 117.806392 205.823979 89.276667 274.700828 89.276667 346.509091 
C 89.276667 418.317353 117.806392 487.194203 168.582501 537.970312 
C 219.35861 588.746421 288.23546 617.276146 360.043722 617.276146 
L 360.043722 617.276146 
z
" clip-path="url(#pd0da8d9607)" style="fill: none; stroke-dasharray: 1.5,2.475; stroke-dashoffset: 0; stroke: #cc0099; stroke-width: 1.5; stroke-linejoin: miter"/>
   </g>
   <g id="patch_6">
    <path d="M 360.043722 617.276146 
C 431.851985 617.276146 500.728834 588.746421 551.504943 537.970312 
C 602.281053 487.194203 630.810778 418.317353 630.810778 346.509091 
C 630.810778 274.700828 602.281053 205.823979 551.504943 155.04787 
C 500.728834 104.27176 431.851985 75.742035 360.043722 75.742035 
C 288.23546 75.742035 219.35861 104.27176 168.582501 155.04787 
C 117.806392 205.823979 89.276667 274.700828 89.276667 346.509091 
C 89.276667 418.317353 117.806392 487.194203 168.582501 537.970312 
C 219.35861 588.746421 288.23546 617.276146 360.043722 617.276146 
L 360.043722 617.276146 
z
" clip-path="url(#pd0da8d9607)" style="fill: none; stroke: #cc0099; stroke-width: 1.5; stroke-linejoin: miter"/>
   </g>
   <g id="line2d_5">
    <path d="M 438.795709 465.784373 
L 566.634571 465.784373 
" clip-path="url(#pd0da8d9607)" style="fill: none; stroke: #ffcc00; stroke-opacity: 0.6; stroke-width: 5; stroke-linecap: square"/>
   </g>
   <g id="line2d_6">
    <path d="M 502.71514 337.945511 
L 566.634571 337.945511 
" clip-path="url(#pd0da8d9607)" style="fill: none; stroke: #ffcc00; stroke-opacity: 0.6; stroke-width: 5; stroke-linecap: square"/>
   </g>
   <g id="line2d_7">
    <path d="M 580.449725 680.329091 
L 139.637719 12.689091 
" clip-path="url(#pd0da8d9607)" style="fill: none; stroke-dasharray: 1.5,2.475; stroke-dashoffset: 0; stroke: #999999; stroke-width: 1.5"/>
   </g>
   <g id="line2d_8">
    <path d="M 360.043722 346.509091 
L 509.233627 572.467429 
" clip-path="url(#pd0da8d9607)" style="fill: none; stroke: #cc0099; stroke-width: 5; stroke-linecap: square"/>
   </g>
   <g id="line2d_9">
    <defs>
     <path id="mb92d3890a7" d="M 0 7.5 
C 1.989023 7.5 3.896849 6.709753 5.303301 5.303301 
C 6.709753 3.896849 7.5 1.989023 7.5 0 
C 7.5 -1.989023 6.709753 -3.896849 5.303301 -5.303301 
C 3.896849 -6.709753 1.989023 -7.5 0 -7.5 
C -1.989023 -7.5 -3.896849 -6.709753 -5.303301 -5.303301 
C -6.709753 -3.896849 -7.5 -1.989023 -7.5 0 
C -7.5 1.989023 -6.709753 3.896849 -5.303301 5.303301 
C -3.896849 6.709753 -1.989023 7.5 0 7.5 
z
" style="stroke: #ffff00; stroke-opacity: 0.6"/>
    </defs>
    <g clip-path="url(#pd0da8d9607)">
     <use xlink:href="#mb92d3890a7" x="360.043722" y="346.509091" style="fill-opacity: 0; stroke: #ffff00; stroke-opacity: 0.6"/>
     <use xlink:href="#mb92d3890a7" x="509.233627" y="572.467429" style="fill-opacity: 0; stroke: #ffff00; stroke-opacity: 0.6"/>
    </g>
   </g>
   <g id="line2d_10">
    <defs>
     <path id="m213b9232f1" d="M 0 2 
C 0.530406 2 1.03916 1.789267 1.414214 1.414214 
C 1.789267 1.03916 2 0.530406 2 0 
C 2 -0.530406 1.789267 -1.03916 1.414214 -1.414214 
C 1.03916 -1.789267 0.530406 -2 0 -2 
C -0.530406 -2 -1.03916 -1.789267 -1.414214 -1.414214 
C -1.789267 -1.03916 -2 -0.530406 -2 0 
C -2 0.530406 -1.789267 1.03916 -1.414214 1.414214 
C -1.03916 1.789267 -0.530406 2 0 2 
z
" style="stroke: #000000"/>
    </defs>
    <g clip-path="url(#pd0da8d9607)">
     <use xlink:href="#m213b9232f1" x="438.795709" y="465.784373" style="stroke: #000000"/>
    </g>
   </g>
   <g id="line2d_11">
    <g clip-path="url(#pd0da8d9607)">
     <use xlink:href="#m213b9232f1" x="566.634571" y="465.784373" style="stroke: #000000"/>
    </g>
   </g>
   <g id="line2d_12">
    <g clip-path="url(#pd0da8d9607)">
     <use xlink:href="#m213b9232f1" x="502.71514" y="337.945511" style="stroke: #000000"/>
    </g>
   </g>
   <g id="line2d_13">
    <g clip-path="url(#pd0da8d9607)">
     <use xlink:href="#m213b9232f1" x="566.634571" y="337.945511" style="stroke: #000000"/>
    </g>
   </g>
   <g id="line2d_14">
    <g clip-path="url(#pd0da8d9607)">
     <use xlink:href="#m213b9232f1" x="360.043722" y="346.509091" style="stroke: #000000"/>
    </g>
   </g>
   <g id="line2d_15">
    <g clip-path="url(#pd0da8d9607)">
     <use xlink:href="#m213b9232f1" x="581.467127" y="457.220793" style="stroke: #000000"/>
    </g>
   </g>
   <g id="line2d_16">
    <g clip-path="url(#pd0da8d9607)">
     <use xlink:href="#m213b9232f1" x="368.357791" y="359.101318" style="stroke: #000000"/>
    </g>
   </g>
   <g id="line2d_17">
    <g clip-path="url(#pd0da8d9607)">
     <use xlink:href="#m213b9232f1" x="509.233627" y="572.467429" style="stroke: #000000"/>
    </g>
   </g>
   <g id="line2d_18">
    <defs>
     <path id="m163ee50c7e" d="M 0 1.25 
C 0.331504 1.25 0.649475 1.118292 0.883883 0.883883 
C 1.118292 0.649475 1.25 0.331504 1.25 0 
C 1.25 -0.331504 1.118292 -0.649475 0.883883 -0.883883 
C 0.649475 -1.118292 0.331504 -1.25 0 -1.25 
C -0.331504 -1.25 -0.649475 -1.118292 -0.883883 -0.883883 
C -1.118292 -0.649475 -1.25 -0.331504 -1.25 0 
C -1.25 0.331504 -1.118292 0.649475 -0.883883 0.883883 
C -0.649475 1.118292 -0.331504 1.25 0 1.25 
z
" style="stroke: #ffffff"/>
    </defs>
    <g clip-path="url(#pd0da8d9607)">
     <use xlink:href="#m163ee50c7e" x="438.795709" y="465.784373" style="fill: #ffffff; stroke: #ffffff"/>
    </g>
   </g>
   <g id="line2d_19">
    <g clip-path="url(#pd0da8d9607)">
     <use xlink:href="#m163ee50c7e" x="566.634571" y="465.784373" style="fill: #ffffff; stroke: #ffffff"/>
    </g>
   </g>
   <g id="line2d_20">
    <g clip-path="url(#pd0da8d9607)">
     <use xlink:href="#m163ee50c7e" x="502.71514" y="337.945511" style="fill: #ffffff; stroke: #ffffff"/>
    </g>
   </g>
   <g id="line2d_21">
    <g clip-path="url(#pd0da8d9607)">
     <use xlink:href="#m163ee50c7e" x="566.634571" y="337.945511" style="fill: #ffffff; stroke: #ffffff"/>
    </g>
   </g>
   <g id="line2d_22">
    <g clip-path="url(#pd0da8d9607)">
     <use xlink:href="#m163ee50c7e" x="360.043722" y="346.509091" style="fill: #ffffff; stroke: #ffffff"/>
    </g>
   </g>
   <g id="line2d_23">
    <g clip-path="url(#pd0da8d9607)">
     <use xlink:href="#m163ee50c7e" x="581.467127" y="457.220793" style="fill: #ffffff; stroke: #ffffff"/>
    </g>
   </g>
   <g id="line2d_24">
    <g clip-path="url(#pd0da8d9607)">
     <use xlink:href="#m163ee50c7e" x="368.357791" y="359.101318" style="fill: #ffffff; stroke: #ffffff"/>
    </g>
   </g>
   <g id="line2d_25">
    <g clip-path="url(#pd0da8d9607)">
     <use xlink:href="#m163ee50c7e" x="509.233627" y="572.467429" style="fill: #ffffff; stroke: #ffffff"/>
    </g>
   </g>
  </g>
  <g id="axes_2">
   <g id="text_1">
    <!-- $x^{2} - \frac{x}{2} + \sqrt{3} x + y^{2} - y - \frac{\sqrt{3} y}{2} - \sqrt{5} - 1 = 0$ -->
    <g style="fill: #ffffff" transform="translate(170.96 740.249091) scale(0.2 -0.2)">
     <defs>
      <path id="DejaVuSans-Oblique-78" d="M 3841 3500 
L 2234 1784 
L 3219 0 
L 2559 0 
L 1819 1388 
L 531 0 
L -166 0 
L 1556 1844 
L 641 3500 
L 1300 3500 
L 1972 2234 
L 3144 3500 
L 3841 3500 
z
" transform="scale(0.015625)"/>
      <path id="DejaVuSans-32" d="M 1228 531 
L 3431 531 
L 3431 0 
L 469 0 
L 469 531 
Q 828 903 1448 1529 
Q 2069 2156 2228 2338 
Q 2531 2678 2651 2914 
Q 2772 3150 2772 3378 
Q 2772 3750 2511 3984 
Q 2250 4219 1831 4219 
Q 1534 4219 1204 4116 
Q 875 4013 500 3803 
L 500 4441 
Q 881 4594 1212 4672 
Q 1544 4750 1819 4750 
Q 2544 4750 2975 4387 
Q 3406 4025 3406 3419 
Q 3406 3131 3298 2873 
Q 3191 2616 2906 2266 
Q 2828 2175 2409 1742 
Q 1991 1309 1228 531 
z
" transform="scale(0.015625)"/>
      <path id="DejaVuSans-2212" d="M 678 2272 
L 4684 2272 
L 4684 1741 
L 678 1741 
L 678 2272 
z
" transform="scale(0.015625)"/>
      <path id="DejaVuSans-2b" d="M 2944 4013 
L 2944 2272 
L 4684 2272 
L 4684 1741 
L 2944 1741 
L 2944 0 
L 2419 0 
L 2419 1741 
L 678 1741 
L 678 2272 
L 2419 2272 
L 2419 4013 
L 2944 4013 
z
" transform="scale(0.015625)"/>
      <path id="STIXSizeOneSym-Regular-221a" d="M 6970 9933 
L 3373 -1888 
L 3104 -1888 
L 1626 2918 
Q 1555 3149 1465 3251 
Q 1376 3354 1229 3354 
Q 1011 3354 794 3181 
L 717 3309 
L 1766 4115 
L 1926 4115 
L 3379 -602 
L 3405 -602 
L 6605 9933 
L 6970 9933 
z
" transform="scale(0.015625)"/>
      <path id="DejaVuSans-33" d="M 2597 2516 
Q 3050 2419 3304 2112 
Q 3559 1806 3559 1356 
Q 3559 666 3084 287 
Q 2609 -91 1734 -91 
Q 1441 -91 1130 -33 
Q 819 25 488 141 
L 488 750 
Q 750 597 1062 519 
Q 1375 441 1716 441 
Q 2309 441 2620 675 
Q 2931 909 2931 1356 
Q 2931 1769 2642 2001 
Q 2353 2234 1838 2234 
L 1294 2234 
L 1294 2753 
L 1863 2753 
Q 2328 2753 2575 2939 
Q 2822 3125 2822 3475 
Q 2822 3834 2567 4026 
Q 2313 4219 1838 4219 
Q 1578 4219 1281 4162 
Q 984 4106 628 3988 
L 628 4550 
Q 988 4650 1302 4700 
Q 1616 4750 1894 4750 
Q 2613 4750 3031 4423 
Q 3450 4097 3450 3541 
Q 3450 3153 3228 2886 
Q 3006 2619 2597 2516 
z
" transform="scale(0.015625)"/>
      <path id="DejaVuSans-Oblique-79" d="M 1588 -325 
Q 1188 -997 936 -1164 
Q 684 -1331 294 -1331 
L -159 -1331 
L -63 -850 
L 269 -850 
Q 509 -850 678 -719 
Q 847 -588 1056 -206 
L 1234 128 
L 459 3500 
L 1069 3500 
L 1650 819 
L 3256 3500 
L 3859 3500 
L 1588 -325 
z
" transform="scale(0.015625)"/>
      <path id="DejaVuSans-35" d="M 691 4666 
L 3169 4666 
L 3169 4134 
L 1269 4134 
L 1269 2991 
Q 1406 3038 1543 3061 
Q 1681 3084 1819 3084 
Q 2600 3084 3056 2656 
Q 3513 2228 3513 1497 
Q 3513 744 3044 326 
Q 2575 -91 1722 -91 
Q 1428 -91 1123 -41 
Q 819 9 494 109 
L 494 744 
Q 775 591 1075 516 
Q 1375 441 1709 441 
Q 2250 441 2565 725 
Q 2881 1009 2881 1497 
Q 2881 1984 2565 2268 
Q 2250 2553 1709 2553 
Q 1456 2553 1204 2497 
Q 953 2441 691 2322 
L 691 4666 
z
" transform="scale(0.015625)"/>
      <path id="DejaVuSans-31" d="M 794 531 
L 1825 531 
L 1825 4091 
L 703 3866 
L 703 4441 
L 1819 4666 
L 2450 4666 
L 2450 531 
L 3481 531 
L 3481 0 
L 794 0 
L 794 531 
z
" transform="scale(0.015625)"/>
      <path id="DejaVuSans-3d" d="M 678 2906 
L 4684 2906 
L 4684 2381 
L 678 2381 
L 678 2906 
z
M 678 1631 
L 4684 1631 
L 4684 1100 
L 678 1100 
L 678 1631 
z
" transform="scale(0.015625)"/>
      <path id="DejaVuSans-30" d="M 2034 4250 
Q 1547 4250 1301 3770 
Q 1056 3291 1056 2328 
Q 1056 1369 1301 889 
Q 1547 409 2034 409 
Q 2525 409 2770 889 
Q 3016 1369 3016 2328 
Q 3016 3291 2770 3770 
Q 2525 4250 2034 4250 
z
M 2034 4750 
Q 2819 4750 3233 4129 
Q 3647 3509 3647 2328 
Q 3647 1150 3233 529 
Q 2819 -91 2034 -91 
Q 1250 -91 836 529 
Q 422 1150 422 2328 
Q 422 3509 836 4129 
Q 1250 4750 2034 4750 
z
" transform="scale(0.015625)"/>
     </defs>
     <use xlink:href="#DejaVuSans-Oblique-78" transform="translate(0 0.453125)"/>
     <use xlink:href="#DejaVuSans-32" transform="translate(63.645833 38.734375) scale(0.7)"/>
     <use xlink:href="#DejaVuSans-2212" transform="translate(130.398763 0.453125)"/>
     <use xlink:href="#DejaVuSans-Oblique-78" transform="translate(235.670247 44.25) scale(0.7)"/>
     <use xlink:href="#DejaVuSans-32" transform="translate(233.670247 -38.953125) scale(0.7)"/>
     <use xlink:href="#DejaVuSans-2b" transform="translate(310.188802 0.453125)"/>
     <use xlink:href="#STIXSizeOneSym-Regular-221a" transform="translate(413.460286 16.140625) scale(0.578716)"/>
     <use xlink:href="#DejaVuSans-33" transform="translate(487.13416 0.6875)"/>
     <use xlink:href="#DejaVuSans-Oblique-78" transform="translate(563.257207 0.453125)"/>
     <use xlink:href="#DejaVuSans-2b" transform="translate(641.919317 0.453125)"/>
     <use xlink:href="#DejaVuSans-Oblique-79" transform="translate(745.190801 0.453125)"/>
     <use xlink:href="#DejaVuSans-32" transform="translate(808.836634 38.734375) scale(0.7)"/>
     <use xlink:href="#DejaVuSans-2212" transform="translate(875.589564 0.453125)"/>
     <use xlink:href="#DejaVuSans-Oblique-79" transform="translate(978.861048 0.453125)"/>
     <use xlink:href="#DejaVuSans-2212" transform="translate(1057.523158 0.453125)"/>
     <use xlink:href="#STIXSizeOneSym-Regular-221a" transform="translate(1160.794642 69.789063) scale(0.405101)"/>
     <use xlink:href="#DejaVuSans-33" transform="translate(1212.366354 58.671875) scale(0.7)"/>
     <use xlink:href="#DejaVuSans-Oblique-79" transform="translate(1265.652487 58.807813) scale(0.7)"/>
     <use xlink:href="#DejaVuSans-32" transform="translate(1211.794642 -38.953125) scale(0.7)"/>
     <use xlink:href="#DejaVuSans-2212" transform="translate(1339.06069 0.453125)"/>
     <use xlink:href="#STIXSizeOneSym-Regular-221a" transform="translate(1442.332174 15.84375) scale(0.57161)"/>
     <use xlink:href="#DejaVuSans-35" transform="translate(1515.213293 0.15625)"/>
     <use xlink:href="#DejaVuSans-2212" transform="translate(1610.818762 0.453125)"/>
     <use xlink:href="#DejaVuSans-31" transform="translate(1714.090246 0.453125)"/>
     <use xlink:href="#DejaVuSans-3d" transform="translate(1797.195715 0.453125)"/>
     <use xlink:href="#DejaVuSans-30" transform="translate(1900.467199 0.453125)"/>
     <path d="M 233.670247 19.25 
L 233.670247 25.5 
L 278.20638 25.5 
L 278.20638 19.25 
L 233.670247 19.25 
z
"/>
     <path d="M 474.63416 99.65625 
L 474.63416 105.90625 
L 563.257207 105.90625 
L 563.257207 99.65625 
L 474.63416 99.65625 
z
"/>
     <path d="M 1203.616354 128.25 
L 1203.616354 132.625 
L 1265.652487 132.625 
L 1265.652487 128.25 
L 1203.616354 128.25 
z
"/>
     <path d="M 1160.794642 19.25 
L 1160.794642 25.5 
L 1307.078268 25.5 
L 1307.078268 19.25 
L 1160.794642 19.25 
z
"/>
     <path d="M 1502.713293 97.8125 
L 1502.713293 104.0625 
L 1591.33634 104.0625 
L 1591.33634 97.8125 
L 1502.713293 97.8125 
z
"/>
    </g>
   </g>
   <g id="text_2">
    <!-- 014 -->
    <g style="fill: #ff0000" transform="translate(33.64 737.171591) scale(0.24 -0.24)">
     <defs>
      <path id="DejaVuSans-34" d="M 2419 4116 
L 825 1625 
L 2419 1625 
L 2419 4116 
z
M 2253 4666 
L 3047 4666 
L 3047 1625 
L 3713 1625 
L 3713 1100 
L 3047 1100 
L 3047 0 
L 2419 0 
L 2419 1100 
L 313 1100 
L 313 1709 
L 2253 4666 
z
" transform="scale(0.015625)"/>
     </defs>
     <use xlink:href="#DejaVuSans-30"/>
     <use xlink:href="#DejaVuSans-31" x="63.623047"/>
     <use xlink:href="#DejaVuSans-34" x="127.246094"/>
    </g>
   </g>
   <g id="text_3">
    <!-- $(E, F)$ -->
    <g style="fill: #ff0000" transform="translate(641.28 737.171591) scale(0.24 -0.24)">
     <defs>
      <path id="DejaVuSans-28" d="M 1984 4856 
Q 1566 4138 1362 3434 
Q 1159 2731 1159 2009 
Q 1159 1288 1364 580 
Q 1569 -128 1984 -844 
L 1484 -844 
Q 1016 -109 783 600 
Q 550 1309 550 2009 
Q 550 2706 781 3412 
Q 1013 4119 1484 4856 
L 1984 4856 
z
" transform="scale(0.015625)"/>
      <path id="DejaVuSans-Oblique-45" d="M 1081 4666 
L 4031 4666 
L 3928 4134 
L 1606 4134 
L 1338 2753 
L 3566 2753 
L 3463 2222 
L 1234 2222 
L 909 531 
L 3284 531 
L 3181 0 
L 172 0 
L 1081 4666 
z
" transform="scale(0.015625)"/>
      <path id="DejaVuSans-2c" d="M 750 794 
L 1409 794 
L 1409 256 
L 897 -744 
L 494 -744 
L 750 256 
L 750 794 
z
" transform="scale(0.015625)"/>
      <path id="DejaVuSans-Oblique-46" d="M 1081 4666 
L 3756 4666 
L 3653 4134 
L 1606 4134 
L 1338 2759 
L 3188 2759 
L 3084 2228 
L 1234 2228 
L 800 0 
L 172 0 
L 1081 4666 
z
" transform="scale(0.015625)"/>
      <path id="DejaVuSans-29" d="M 513 4856 
L 1013 4856 
Q 1481 4119 1714 3412 
Q 1947 2706 1947 2009 
Q 1947 1309 1714 600 
Q 1481 -109 1013 -844 
L 513 -844 
Q 928 -128 1133 580 
Q 1338 1288 1338 2009 
Q 1338 2731 1133 3434 
Q 928 4138 513 4856 
z
" transform="scale(0.015625)"/>
     </defs>
     <use xlink:href="#DejaVuSans-28" transform="translate(0 0.125)"/>
     <use xlink:href="#DejaVuSans-Oblique-45" transform="translate(39.013672 0.125)"/>
     <use xlink:href="#DejaVuSans-2c" transform="translate(102.197266 0.125)"/>
     <use xlink:href="#DejaVuSans-Oblique-46" transform="translate(153.466797 0.125)"/>
     <use xlink:href="#DejaVuSans-29" transform="translate(210.986328 0.125)"/>
    </g>
   </g>
  </g>
 </g>
 <defs>
  <clipPath id="pd0da8d9607">
   <rect x="33.64" y="12.689091" width="667.64" height="667.64"/>
  </clipPath>
 </defs>
</svg>
