<?xml version="1.0" encoding="utf-8" standalone="no"?>
<!DOCTYPE svg PUBLIC "-//W3C//DTD SVG 1.1//EN"
  "http://www.w3.org/Graphics/SVG/1.1/DTD/svg11.dtd">
<svg xmlns:xlink="http://www.w3.org/1999/xlink" width="720pt" height="792pt" viewBox="0 0 720 792" xmlns="http://www.w3.org/2000/svg" version="1.1">
 <metadata>
  <rdf:RDF xmlns:dc="http://purl.org/dc/elements/1.1/" xmlns:cc="http://creativecommons.org/ns#" xmlns:rdf="http://www.w3.org/1999/02/22-rdf-syntax-ns#">
   <cc:Work>
    <dc:type rdf:resource="http://purl.org/dc/dcmitype/StillImage"/>
    <dc:date>2023-02-24T13:43:11.675354</dc:date>
    <dc:format>image/svg+xml</dc:format>
    <dc:creator>
     <cc:Agent>
      <dc:title>Matplotlib v3.6.3, https://matplotlib.org/</dc:title>
     </cc:Agent>
    </dc:creator>
   </cc:Work>
  </rdf:RDF>
 </metadata>
 <defs>
  <style type="text/css">*{stroke-linejoin: round; stroke-linecap: butt}</style>
 </defs>
 <g id="figure_1">
  <g id="patch_1">
   <path d="M 0 792 
L 720 792 
L 720 0 
L 0 0 
z
"/>
  </g>
  <g id="axes_1">
   <g id="line2d_1">
    <defs>
     <path id="m5c13296774" d="M 0 3.5 
C 0.928211 3.5 1.81853 3.131218 2.474874 2.474874 
C 3.131218 1.81853 3.5 0.928211 3.5 0 
C 3.5 -0.928211 3.131218 -1.81853 2.474874 -2.474874 
C 1.81853 -3.131218 0.928211 -3.5 0 -3.5 
C -0.928211 -3.5 -1.81853 -3.131218 -2.474874 -2.474874 
C -3.131218 -1.81853 -3.5 -0.928211 -3.5 0 
C -3.5 0.928211 -3.131218 1.81853 -2.474874 2.474874 
C -1.81853 3.131218 -0.928211 3.5 0 3.5 
z
" style="stroke: #ffffff; stroke-opacity: 0.4"/>
    </defs>
    <g clip-path="url(#pd0461bbf20)">
     <use xlink:href="#m5c13296774" x="438.795709" y="465.784373" style="fill: #ffffff; fill-opacity: 0.4; stroke: #ffffff; stroke-opacity: 0.4"/>
    </g>
   </g>
   <g id="line2d_2">
    <g clip-path="url(#pd0461bbf20)">
     <use xlink:href="#m5c13296774" x="566.634571" y="465.784373" style="fill: #ffffff; fill-opacity: 0.4; stroke: #ffffff; stroke-opacity: 0.4"/>
    </g>
   </g>
   <g id="line2d_3">
    <g clip-path="url(#pd0461bbf20)">
     <use xlink:href="#m5c13296774" x="502.71514" y="337.945511" style="fill: #ffffff; fill-opacity: 0.4; stroke: #ffffff; stroke-opacity: 0.4"/>
    </g>
   </g>
   <g id="line2d_4">
    <g clip-path="url(#pd0461bbf20)">
     <use xlink:href="#m5c13296774" x="566.634571" y="337.945511" style="fill: #ffffff; fill-opacity: 0.4; stroke: #ffffff; stroke-opacity: 0.4"/>
    </g>
   </g>
   <g id="patch_2">
    <path d="M 438.795709 608.712566 
C 476.700709 608.712566 513.058321 593.65275 539.861204 566.849868 
C 566.664086 540.046985 581.723902 503.689373 581.723902 465.784373 
C 581.723902 427.879373 566.664086 391.521761 539.861204 364.718879 
C 513.058321 337.915996 476.700709 322.85618 438.795709 322.85618 
C 400.890709 322.85618 364.533097 337.915996 337.730214 364.718879 
C 310.927332 391.521761 295.867516 427.879373 295.867516 465.784373 
C 295.867516 503.689373 310.927332 540.046985 337.730214 566.849868 
C 364.533097 593.65275 400.890709 608.712566 438.795709 608.712566 
L 438.795709 608.712566 
z
" clip-path="url(#pd0461bbf20)" style="fill: none; stroke-dasharray: 1.5,2.475; stroke-dashoffset: 0; stroke: #333333; stroke-width: 1.5; stroke-linejoin: miter"/>
   </g>
   <g id="patch_3">
    <path d="M 502.71514 480.873704 
C 540.62014 480.873704 576.977752 465.813888 603.780635 439.011006 
C 630.583517 412.208123 645.643333 375.850511 645.643333 337.945511 
C 645.643333 300.040511 630.583517 263.682899 603.780635 236.880016 
C 576.977752 210.077134 540.62014 195.017318 502.71514 195.017318 
C 464.81014 195.017318 428.452528 210.077134 401.649646 236.880016 
C 374.846763 263.682899 359.786947 300.040511 359.786947 337.945511 
C 359.786947 375.850511 374.846763 412.208123 401.649646 439.011006 
C 428.452528 465.813888 464.81014 480.873704 502.71514 480.873704 
L 502.71514 480.873704 
z
" clip-path="url(#pd0461bbf20)" style="fill: none; stroke-dasharray: 1.5,2.475; stroke-dashoffset: 0; stroke: #333333; stroke-width: 1.5; stroke-linejoin: miter"/>
   </g>
   <g id="patch_4">
    <path d="M 438.795709 593.623236 
C 472.698972 593.623236 505.218209 580.153327 529.191435 556.1801 
C 553.164662 532.206873 566.634571 499.687636 566.634571 465.784373 
C 566.634571 431.881111 553.164662 399.361874 529.191435 375.388647 
C 505.218209 351.41542 472.698972 337.945511 438.795709 337.945511 
C 404.892446 337.945511 372.373209 351.41542 348.399983 375.388647 
C 324.426756 399.361874 310.956847 431.881111 310.956847 465.784373 
C 310.956847 499.687636 324.426756 532.206873 348.399983 556.1801 
C 372.373209 580.153327 404.892446 593.623236 438.795709 593.623236 
L 438.795709 593.623236 
z
" clip-path="url(#pd0461bbf20)" style="fill: none; stroke-dasharray: 1.5,2.475; stroke-dashoffset: 0; stroke: #cc0099; stroke-width: 1.5; stroke-linejoin: miter"/>
   </g>
   <g id="patch_5">
    <path d="M 360.043722 617.276146 
C 431.851985 617.276146 500.728834 588.746421 551.504943 537.970312 
C 602.281053 487.194203 630.810778 418.317353 630.810778 346.509091 
C 630.810778 274.700828 602.281053 205.823979 551.504943 155.04787 
C 500.728834 104.27176 431.851985 75.742035 360.043722 75.742035 
C 288.23546 75.742035 219.35861 104.27176 168.582501 155.04787 
C 117.806392 205.823979 89.276667 274.700828 89.276667 346.509091 
C 89.276667 418.317353 117.806392 487.194203 168.582501 537.970312 
C 219.35861 588.746421 288.23546 617.276146 360.043722 617.276146 
L 360.043722 617.276146 
z
" clip-path="url(#pd0461bbf20)" style="fill: none; stroke-dasharray: 1.5,2.475; stroke-dashoffset: 0; stroke: #cc0099; stroke-width: 1.5; stroke-linejoin: miter"/>
   </g>
   <g id="patch_6">
    <path d="M 360.043722 617.276146 
C 431.851985 617.276146 500.728834 588.746421 551.504943 537.970312 
C 602.281053 487.194203 630.810778 418.317353 630.810778 346.509091 
C 630.810778 274.700828 602.281053 205.823979 551.504943 155.04787 
C 500.728834 104.27176 431.851985 75.742035 360.043722 75.742035 
C 288.23546 75.742035 219.35861 104.27176 168.582501 155.04787 
C 117.806392 205.823979 89.276667 274.700828 89.276667 346.509091 
C 89.276667 418.317353 117.806392 487.194203 168.582501 537.970312 
C 219.35861 588.746421 288.23546 617.276146 360.043722 617.276146 
L 360.043722 617.276146 
z
" clip-path="url(#pd0461bbf20)" style="fill: none; stroke: #cc0099; stroke-width: 1.5; stroke-linejoin: miter"/>
   </g>
   <g id="line2d_5">
    <path d="M 438.795709 465.784373 
L 566.634571 465.784373 
" clip-path="url(#pd0461bbf20)" style="fill: none; stroke: #ffcc00; stroke-opacity: 0.6; stroke-width: 5; stroke-linecap: square"/>
   </g>
   <g id="line2d_6">
    <path d="M 502.71514 337.945511 
L 566.634571 337.945511 
" clip-path="url(#pd0461bbf20)" style="fill: none; stroke: #ffcc00; stroke-opacity: 0.6; stroke-width: 5; stroke-linecap: square"/>
   </g>
   <g id="line2d_7">
    <path d="M 580.449725 680.329091 
L 139.637719 12.689091 
" clip-path="url(#pd0461bbf20)" style="fill: none; stroke-dasharray: 1.5,2.475; stroke-dashoffset: 0; stroke: #999999; stroke-width: 1.5"/>
   </g>
   <g id="line2d_8">
    <path d="M 33.64 366.100852 
L 701.28 326.027034 
" clip-path="url(#pd0461bbf20)" style="fill: none; stroke-dasharray: 1.5,2.475; stroke-dashoffset: 0; stroke: #999999; stroke-width: 1.5"/>
   </g>
   <g id="line2d_9">
    <defs>
     <path id="m58159d58eb" d="M 0 7.5 
C 1.989023 7.5 3.896849 6.709753 5.303301 5.303301 
C 6.709753 3.896849 7.5 1.989023 7.5 0 
C 7.5 -1.989023 6.709753 -3.896849 5.303301 -5.303301 
C 3.896849 -6.709753 1.989023 -7.5 0 -7.5 
C -1.989023 -7.5 -3.896849 -6.709753 -5.303301 -5.303301 
C -6.709753 -3.896849 -7.5 -1.989023 -7.5 0 
C -7.5 1.989023 -6.709753 3.896849 -5.303301 5.303301 
C -3.896849 6.709753 -1.989023 7.5 0 7.5 
z
" style="stroke: #ffff00; stroke-opacity: 0.6"/>
    </defs>
    <g clip-path="url(#pd0461bbf20)">
     <use xlink:href="#m58159d58eb" x="630.324336" y="330.286012" style="fill-opacity: 0; stroke: #ffff00; stroke-opacity: 0.6"/>
    </g>
   </g>
   <g id="line2d_10">
    <path d="M 33.64 366.100852 
L 701.28 326.027034 
" clip-path="url(#pd0461bbf20)" style="fill: none; stroke: #999999; stroke-width: 1.5; stroke-linecap: square"/>
   </g>
   <g id="line2d_11">
    <defs>
     <path id="m1d39be6f05" d="M 0 2 
C 0.530406 2 1.03916 1.789267 1.414214 1.414214 
C 1.789267 1.03916 2 0.530406 2 0 
C 2 -0.530406 1.789267 -1.03916 1.414214 -1.414214 
C 1.03916 -1.789267 0.530406 -2 0 -2 
C -0.530406 -2 -1.03916 -1.789267 -1.414214 -1.414214 
C -1.789267 -1.03916 -2 -0.530406 -2 0 
C -2 0.530406 -1.789267 1.03916 -1.414214 1.414214 
C -1.03916 1.789267 -0.530406 2 0 2 
z
" style="stroke: #000000"/>
    </defs>
    <g clip-path="url(#pd0461bbf20)">
     <use xlink:href="#m1d39be6f05" x="438.795709" y="465.784373" style="stroke: #000000"/>
    </g>
   </g>
   <g id="line2d_12">
    <g clip-path="url(#pd0461bbf20)">
     <use xlink:href="#m1d39be6f05" x="566.634571" y="465.784373" style="stroke: #000000"/>
    </g>
   </g>
   <g id="line2d_13">
    <g clip-path="url(#pd0461bbf20)">
     <use xlink:href="#m1d39be6f05" x="502.71514" y="337.945511" style="stroke: #000000"/>
    </g>
   </g>
   <g id="line2d_14">
    <g clip-path="url(#pd0461bbf20)">
     <use xlink:href="#m1d39be6f05" x="566.634571" y="337.945511" style="stroke: #000000"/>
    </g>
   </g>
   <g id="line2d_15">
    <g clip-path="url(#pd0461bbf20)">
     <use xlink:href="#m1d39be6f05" x="360.043722" y="346.509091" style="stroke: #000000"/>
    </g>
   </g>
   <g id="line2d_16">
    <g clip-path="url(#pd0461bbf20)">
     <use xlink:href="#m1d39be6f05" x="581.467127" y="457.220793" style="stroke: #000000"/>
    </g>
   </g>
   <g id="line2d_17">
    <g clip-path="url(#pd0461bbf20)">
     <use xlink:href="#m1d39be6f05" x="368.357791" y="359.101318" style="stroke: #000000"/>
    </g>
   </g>
   <g id="line2d_18">
    <g clip-path="url(#pd0461bbf20)">
     <use xlink:href="#m1d39be6f05" x="509.233627" y="572.467429" style="stroke: #000000"/>
    </g>
   </g>
   <g id="line2d_19">
    <g clip-path="url(#pd0461bbf20)">
     <use xlink:href="#m1d39be6f05" x="210.853817" y="120.550753" style="stroke: #000000"/>
    </g>
   </g>
   <g id="line2d_20">
    <g clip-path="url(#pd0461bbf20)">
     <use xlink:href="#m1d39be6f05" x="399.477132" y="344.142176" style="stroke: #000000"/>
    </g>
   </g>
   <g id="line2d_21">
    <g clip-path="url(#pd0461bbf20)">
     <use xlink:href="#m1d39be6f05" x="463.28173" y="340.312426" style="stroke: #000000"/>
    </g>
   </g>
   <g id="line2d_22">
    <g clip-path="url(#pd0461bbf20)">
     <use xlink:href="#m1d39be6f05" x="89.763109" y="362.73217" style="stroke: #000000"/>
    </g>
   </g>
   <g id="line2d_23">
    <g clip-path="url(#pd0461bbf20)">
     <use xlink:href="#m1d39be6f05" x="630.324336" y="330.286012" style="stroke: #000000"/>
    </g>
   </g>
   <g id="line2d_24">
    <defs>
     <path id="md8f8c01a0f" d="M 0 1.25 
C 0.331504 1.25 0.649475 1.118292 0.883883 0.883883 
C 1.118292 0.649475 1.25 0.331504 1.25 0 
C 1.25 -0.331504 1.118292 -0.649475 0.883883 -0.883883 
C 0.649475 -1.118292 0.331504 -1.25 0 -1.25 
C -0.331504 -1.25 -0.649475 -1.118292 -0.883883 -0.883883 
C -1.118292 -0.649475 -1.25 -0.331504 -1.25 0 
C -1.25 0.331504 -1.118292 0.649475 -0.883883 0.883883 
C -0.649475 1.118292 -0.331504 1.25 0 1.25 
z
" style="stroke: #ffffff"/>
    </defs>
    <g clip-path="url(#pd0461bbf20)">
     <use xlink:href="#md8f8c01a0f" x="438.795709" y="465.784373" style="fill: #ffffff; stroke: #ffffff"/>
    </g>
   </g>
   <g id="line2d_25">
    <g clip-path="url(#pd0461bbf20)">
     <use xlink:href="#md8f8c01a0f" x="566.634571" y="465.784373" style="fill: #ffffff; stroke: #ffffff"/>
    </g>
   </g>
   <g id="line2d_26">
    <g clip-path="url(#pd0461bbf20)">
     <use xlink:href="#md8f8c01a0f" x="502.71514" y="337.945511" style="fill: #ffffff; stroke: #ffffff"/>
    </g>
   </g>
   <g id="line2d_27">
    <g clip-path="url(#pd0461bbf20)">
     <use xlink:href="#md8f8c01a0f" x="566.634571" y="337.945511" style="fill: #ffffff; stroke: #ffffff"/>
    </g>
   </g>
   <g id="line2d_28">
    <g clip-path="url(#pd0461bbf20)">
     <use xlink:href="#md8f8c01a0f" x="360.043722" y="346.509091" style="fill: #ffffff; stroke: #ffffff"/>
    </g>
   </g>
   <g id="line2d_29">
    <g clip-path="url(#pd0461bbf20)">
     <use xlink:href="#md8f8c01a0f" x="581.467127" y="457.220793" style="fill: #ffffff; stroke: #ffffff"/>
    </g>
   </g>
   <g id="line2d_30">
    <g clip-path="url(#pd0461bbf20)">
     <use xlink:href="#md8f8c01a0f" x="368.357791" y="359.101318" style="fill: #ffffff; stroke: #ffffff"/>
    </g>
   </g>
   <g id="line2d_31">
    <g clip-path="url(#pd0461bbf20)">
     <use xlink:href="#md8f8c01a0f" x="509.233627" y="572.467429" style="fill: #ffffff; stroke: #ffffff"/>
    </g>
   </g>
   <g id="line2d_32">
    <g clip-path="url(#pd0461bbf20)">
     <use xlink:href="#md8f8c01a0f" x="210.853817" y="120.550753" style="fill: #ffffff; stroke: #ffffff"/>
    </g>
   </g>
   <g id="line2d_33">
    <g clip-path="url(#pd0461bbf20)">
     <use xlink:href="#md8f8c01a0f" x="399.477132" y="344.142176" style="fill: #ffffff; stroke: #ffffff"/>
    </g>
   </g>
   <g id="line2d_34">
    <g clip-path="url(#pd0461bbf20)">
     <use xlink:href="#md8f8c01a0f" x="463.28173" y="340.312426" style="fill: #ffffff; stroke: #ffffff"/>
    </g>
   </g>
   <g id="line2d_35">
    <g clip-path="url(#pd0461bbf20)">
     <use xlink:href="#md8f8c01a0f" x="89.763109" y="362.73217" style="fill: #ffffff; stroke: #ffffff"/>
    </g>
   </g>
   <g id="line2d_36">
    <g clip-path="url(#pd0461bbf20)">
     <use xlink:href="#md8f8c01a0f" x="630.324336" y="330.286012" style="fill: #ffffff; stroke: #ffffff"/>
    </g>
   </g>
  </g>
  <g id="axes_2">
   <g id="text_1">
    <!-- $\left[ \ \frac{\sqrt{5}}{10} + \frac{1}{2} + \frac{\sqrt{15}}{5}, \ - \frac{\sqrt{15}}{10} + \frac{\sqrt{5}}{5} + 1 \ \right]$ -->
    <g style="fill: #ffffff" transform="translate(215.36 738.649091) scale(0.2 -0.2)">
     <defs>
      <path id="STIXSizeTwoSym-Regular-5b" d="M 2701 -1786 
L 1216 -1786 
L 1216 10022 
L 2701 10022 
L 2701 9766 
L 1702 9766 
L 1702 -1530 
L 2701 -1530 
L 2701 -1786 
z
" transform="scale(0.015625)"/>
      <path id="STIXSizeOneSym-Regular-221a" d="M 6970 9933 
L 3373 -1888 
L 3104 -1888 
L 1626 2918 
Q 1555 3149 1465 3251 
Q 1376 3354 1229 3354 
Q 1011 3354 794 3181 
L 717 3309 
L 1766 4115 
L 1926 4115 
L 3379 -602 
L 3405 -602 
L 6605 9933 
L 6970 9933 
z
" transform="scale(0.015625)"/>
      <path id="DejaVuSans-35" d="M 691 4666 
L 3169 4666 
L 3169 4134 
L 1269 4134 
L 1269 2991 
Q 1406 3038 1543 3061 
Q 1681 3084 1819 3084 
Q 2600 3084 3056 2656 
Q 3513 2228 3513 1497 
Q 3513 744 3044 326 
Q 2575 -91 1722 -91 
Q 1428 -91 1123 -41 
Q 819 9 494 109 
L 494 744 
Q 775 591 1075 516 
Q 1375 441 1709 441 
Q 2250 441 2565 725 
Q 2881 1009 2881 1497 
Q 2881 1984 2565 2268 
Q 2250 2553 1709 2553 
Q 1456 2553 1204 2497 
Q 953 2441 691 2322 
L 691 4666 
z
" transform="scale(0.015625)"/>
      <path id="DejaVuSans-31" d="M 794 531 
L 1825 531 
L 1825 4091 
L 703 3866 
L 703 4441 
L 1819 4666 
L 2450 4666 
L 2450 531 
L 3481 531 
L 3481 0 
L 794 0 
L 794 531 
z
" transform="scale(0.015625)"/>
      <path id="DejaVuSans-30" d="M 2034 4250 
Q 1547 4250 1301 3770 
Q 1056 3291 1056 2328 
Q 1056 1369 1301 889 
Q 1547 409 2034 409 
Q 2525 409 2770 889 
Q 3016 1369 3016 2328 
Q 3016 3291 2770 3770 
Q 2525 4250 2034 4250 
z
M 2034 4750 
Q 2819 4750 3233 4129 
Q 3647 3509 3647 2328 
Q 3647 1150 3233 529 
Q 2819 -91 2034 -91 
Q 1250 -91 836 529 
Q 422 1150 422 2328 
Q 422 3509 836 4129 
Q 1250 4750 2034 4750 
z
" transform="scale(0.015625)"/>
      <path id="DejaVuSans-2b" d="M 2944 4013 
L 2944 2272 
L 4684 2272 
L 4684 1741 
L 2944 1741 
L 2944 0 
L 2419 0 
L 2419 1741 
L 678 1741 
L 678 2272 
L 2419 2272 
L 2419 4013 
L 2944 4013 
z
" transform="scale(0.015625)"/>
      <path id="DejaVuSans-32" d="M 1228 531 
L 3431 531 
L 3431 0 
L 469 0 
L 469 531 
Q 828 903 1448 1529 
Q 2069 2156 2228 2338 
Q 2531 2678 2651 2914 
Q 2772 3150 2772 3378 
Q 2772 3750 2511 3984 
Q 2250 4219 1831 4219 
Q 1534 4219 1204 4116 
Q 875 4013 500 3803 
L 500 4441 
Q 881 4594 1212 4672 
Q 1544 4750 1819 4750 
Q 2544 4750 2975 4387 
Q 3406 4025 3406 3419 
Q 3406 3131 3298 2873 
Q 3191 2616 2906 2266 
Q 2828 2175 2409 1742 
Q 1991 1309 1228 531 
z
" transform="scale(0.015625)"/>
      <path id="DejaVuSans-2c" d="M 750 794 
L 1409 794 
L 1409 256 
L 897 -744 
L 494 -744 
L 750 256 
L 750 794 
z
" transform="scale(0.015625)"/>
      <path id="DejaVuSans-2212" d="M 678 2272 
L 4684 2272 
L 4684 1741 
L 678 1741 
L 678 2272 
z
" transform="scale(0.015625)"/>
      <path id="STIXSizeTwoSym-Regular-5d" d="M 1722 -1786 
L 237 -1786 
L 237 -1530 
L 1235 -1530 
L 1235 9766 
L 237 9766 
L 237 10022 
L 1722 10022 
L 1722 -1786 
z
" transform="scale(0.015625)"/>
     </defs>
     <use xlink:href="#STIXSizeTwoSym-Regular-5b" transform="translate(0 -15.8125) scale(0.878565)"/>
     <use xlink:href="#STIXSizeOneSym-Regular-221a" transform="translate(72.805004 55.607812) scale(0.400127)"/>
     <use xlink:href="#DejaVuSans-35" transform="translate(123.821787 45.326562) scale(0.7)"/>
     <use xlink:href="#DejaVuSans-31" transform="translate(80.805004 -39.364062) scale(0.7)"/>
     <use xlink:href="#DejaVuSans-30" transform="translate(125.341136 -39.364062) scale(0.7)"/>
     <use xlink:href="#DejaVuSans-2b" transform="translate(209.090341 0.042187)"/>
     <use xlink:href="#DejaVuSans-31" transform="translate(312.361826 43.839063) scale(0.7)"/>
     <use xlink:href="#DejaVuSans-32" transform="translate(312.361826 -39.364062) scale(0.7)"/>
     <use xlink:href="#DejaVuSans-2b" transform="translate(388.880381 0.042187)"/>
     <use xlink:href="#STIXSizeOneSym-Regular-221a" transform="translate(492.151865 55.607812) scale(0.400127)"/>
     <use xlink:href="#DejaVuSans-31" transform="translate(543.168648 45.326562) scale(0.7)"/>
     <use xlink:href="#DejaVuSans-35" transform="translate(587.704781 45.326562) scale(0.7)"/>
     <use xlink:href="#DejaVuSans-35" transform="translate(544.151865 -38.445312) scale(0.7)"/>
     <use xlink:href="#DejaVuSans-2c" transform="translate(653.490914 0.042187)"/>
     <use xlink:href="#DejaVuSans-2212" transform="translate(756.713245 0.042187)"/>
     <use xlink:href="#STIXSizeOneSym-Regular-221a" transform="translate(859.98473 55.607812) scale(0.400127)"/>
     <use xlink:href="#DejaVuSans-31" transform="translate(911.001513 45.326562) scale(0.7)"/>
     <use xlink:href="#DejaVuSans-35" transform="translate(955.537646 45.326562) scale(0.7)"/>
     <use xlink:href="#DejaVuSans-31" transform="translate(889.98473 -39.364062) scale(0.7)"/>
     <use xlink:href="#DejaVuSans-30" transform="translate(934.520862 -39.364062) scale(0.7)"/>
     <use xlink:href="#DejaVuSans-2b" transform="translate(1040.8062 0.042187)"/>
     <use xlink:href="#STIXSizeOneSym-Regular-221a" transform="translate(1144.077685 55.607812) scale(0.400127)"/>
     <use xlink:href="#DejaVuSans-35" transform="translate(1195.094468 45.326562) scale(0.7)"/>
     <use xlink:href="#DejaVuSans-35" transform="translate(1174.077685 -38.445312) scale(0.7)"/>
     <use xlink:href="#DejaVuSans-2b" transform="translate(1280.363022 0.042187)"/>
     <use xlink:href="#DejaVuSans-31" transform="translate(1383.634507 0.042187)"/>
     <use xlink:href="#STIXSizeTwoSym-Regular-5d" transform="translate(1479.727932 -15.8125) scale(0.878565)"/>
     <path d="M 115.071787 112.985937 
L 115.071787 117.360937 
L 177.10792 117.360937 
L 177.10792 112.985937 
L 115.071787 112.985937 
z
"/>
     <path d="M 72.805004 18.839062 
L 72.805004 25.089062 
L 177.10792 25.089062 
L 177.10792 18.839062 
L 72.805004 18.839062 
z
"/>
     <path d="M 312.361826 18.839063 
L 312.361826 25.089063 
L 356.897959 25.089063 
L 356.897959 18.839063 
L 312.361826 18.839063 
z
"/>
     <path d="M 534.418648 112.985937 
L 534.418648 117.360937 
L 640.990914 117.360937 
L 640.990914 112.985937 
L 534.418648 112.985937 
z
"/>
     <path d="M 492.151865 18.839062 
L 492.151865 25.089062 
L 640.990914 25.089062 
L 640.990914 18.839062 
L 492.151865 18.839062 
z
"/>
     <path d="M 902.251513 112.985937 
L 902.251513 117.360937 
L 1008.823778 117.360937 
L 1008.823778 112.985937 
L 902.251513 112.985937 
z
"/>
     <path d="M 859.98473 18.839062 
L 859.98473 25.089062 
L 1008.823778 25.089062 
L 1008.823778 18.839062 
L 859.98473 18.839062 
z
"/>
     <path d="M 1186.344468 112.985937 
L 1186.344468 117.360937 
L 1248.380601 117.360937 
L 1248.380601 112.985937 
L 1186.344468 112.985937 
z
"/>
     <path d="M 1144.077685 18.839062 
L 1144.077685 25.089062 
L 1248.380601 25.089062 
L 1248.380601 18.839062 
L 1144.077685 18.839062 
z
"/>
    </g>
   </g>
   <g id="text_2">
    <!-- 020 -->
    <g style="fill: #ff0000" transform="translate(33.64 737.171591) scale(0.24 -0.24)">
     <use xlink:href="#DejaVuSans-30"/>
     <use xlink:href="#DejaVuSans-32" x="63.623047"/>
     <use xlink:href="#DejaVuSans-30" x="127.246094"/>
    </g>
   </g>
   <g id="text_3">
    <!-- $G$ -->
    <g style="fill: #ff0000" transform="translate(682.56 737.171591) scale(0.24 -0.24)">
     <defs>
      <path id="DejaVuSans-Oblique-47" d="M 3494 697 
L 3738 1919 
L 2700 1919 
L 2797 2438 
L 4453 2438 
L 4050 384 
Q 3634 156 3143 32 
Q 2653 -91 2156 -91 
Q 1278 -91 783 396 
Q 288 884 288 1753 
Q 288 2475 589 3126 
Q 891 3778 1422 4213 
Q 1756 4484 2153 4617 
Q 2550 4750 3034 4750 
Q 3472 4750 3873 4639 
Q 4275 4528 4641 4306 
L 4513 3634 
Q 4231 3928 3853 4083 
Q 3475 4238 3047 4238 
Q 2550 4238 2172 4048 
Q 1794 3859 1497 3463 
Q 1244 3125 1098 2667 
Q 953 2209 953 1734 
Q 953 1081 1287 751 
Q 1622 422 2284 422 
Q 2616 422 2925 492 
Q 3234 563 3494 697 
z
" transform="scale(0.015625)"/>
     </defs>
     <use xlink:href="#DejaVuSans-Oblique-47" transform="translate(0 0.78125)"/>
    </g>
   </g>
  </g>
 </g>
 <defs>
  <clipPath id="pd0461bbf20">
   <rect x="33.64" y="12.689091" width="667.64" height="667.64"/>
  </clipPath>
 </defs>
</svg>
