<?xml version="1.0" encoding="utf-8" standalone="no"?>
<!DOCTYPE svg PUBLIC "-//W3C//DTD SVG 1.1//EN"
  "http://www.w3.org/Graphics/SVG/1.1/DTD/svg11.dtd">
<svg xmlns:xlink="http://www.w3.org/1999/xlink" width="720pt" height="792pt" viewBox="0 0 720 792" xmlns="http://www.w3.org/2000/svg" version="1.1">
 <metadata>
  <rdf:RDF xmlns:dc="http://purl.org/dc/elements/1.1/" xmlns:cc="http://creativecommons.org/ns#" xmlns:rdf="http://www.w3.org/1999/02/22-rdf-syntax-ns#">
   <cc:Work>
    <dc:type rdf:resource="http://purl.org/dc/dcmitype/StillImage"/>
    <dc:date>2023-02-24T13:43:23.942115</dc:date>
    <dc:format>image/svg+xml</dc:format>
    <dc:creator>
     <cc:Agent>
      <dc:title>Matplotlib v3.6.3, https://matplotlib.org/</dc:title>
     </cc:Agent>
    </dc:creator>
   </cc:Work>
  </rdf:RDF>
 </metadata>
 <defs>
  <style type="text/css">*{stroke-linejoin: round; stroke-linecap: butt}</style>
 </defs>
 <g id="figure_1">
  <g id="patch_1">
   <path d="M 0 792 
L 720 792 
L 720 0 
L 0 0 
z
"/>
  </g>
  <g id="axes_1">
   <g id="line2d_1">
    <defs>
     <path id="mad43f87795" d="M 0 3.5 
C 0.928211 3.5 1.81853 3.131218 2.474874 2.474874 
C 3.131218 1.81853 3.5 0.928211 3.5 0 
C 3.5 -0.928211 3.131218 -1.81853 2.474874 -2.474874 
C 1.81853 -3.131218 0.928211 -3.5 0 -3.5 
C -0.928211 -3.5 -1.81853 -3.131218 -2.474874 -2.474874 
C -3.131218 -1.81853 -3.5 -0.928211 -3.5 0 
C -3.5 0.928211 -3.131218 1.81853 -2.474874 2.474874 
C -1.81853 3.131218 -0.928211 3.5 0 3.5 
z
" style="stroke: #ffffff; stroke-opacity: 0.4"/>
    </defs>
    <g clip-path="url(#pb1368e0fce)">
     <use xlink:href="#mad43f87795" x="438.795709" y="465.784373" style="fill: #ffffff; fill-opacity: 0.4; stroke: #ffffff; stroke-opacity: 0.4"/>
    </g>
   </g>
   <g id="line2d_2">
    <g clip-path="url(#pb1368e0fce)">
     <use xlink:href="#mad43f87795" x="566.634571" y="465.784373" style="fill: #ffffff; fill-opacity: 0.4; stroke: #ffffff; stroke-opacity: 0.4"/>
    </g>
   </g>
   <g id="line2d_3">
    <g clip-path="url(#pb1368e0fce)">
     <use xlink:href="#mad43f87795" x="502.71514" y="337.945511" style="fill: #ffffff; fill-opacity: 0.4; stroke: #ffffff; stroke-opacity: 0.4"/>
    </g>
   </g>
   <g id="line2d_4">
    <g clip-path="url(#pb1368e0fce)">
     <use xlink:href="#mad43f87795" x="566.634571" y="337.945511" style="fill: #ffffff; fill-opacity: 0.4; stroke: #ffffff; stroke-opacity: 0.4"/>
    </g>
   </g>
   <g id="patch_2">
    <path d="M 438.795709 608.712566 
C 476.700709 608.712566 513.058321 593.65275 539.861204 566.849868 
C 566.664086 540.046985 581.723902 503.689373 581.723902 465.784373 
C 581.723902 427.879373 566.664086 391.521761 539.861204 364.718879 
C 513.058321 337.915996 476.700709 322.85618 438.795709 322.85618 
C 400.890709 322.85618 364.533097 337.915996 337.730214 364.718879 
C 310.927332 391.521761 295.867516 427.879373 295.867516 465.784373 
C 295.867516 503.689373 310.927332 540.046985 337.730214 566.849868 
C 364.533097 593.65275 400.890709 608.712566 438.795709 608.712566 
L 438.795709 608.712566 
z
" clip-path="url(#pb1368e0fce)" style="fill: none; stroke-dasharray: 1.5,2.475; stroke-dashoffset: 0; stroke: #333333; stroke-width: 1.5; stroke-linejoin: miter"/>
   </g>
   <g id="patch_3">
    <path d="M 502.71514 480.873704 
C 540.62014 480.873704 576.977752 465.813888 603.780635 439.011006 
C 630.583517 412.208123 645.643333 375.850511 645.643333 337.945511 
C 645.643333 300.040511 630.583517 263.682899 603.780635 236.880016 
C 576.977752 210.077134 540.62014 195.017318 502.71514 195.017318 
C 464.81014 195.017318 428.452528 210.077134 401.649646 236.880016 
C 374.846763 263.682899 359.786947 300.040511 359.786947 337.945511 
C 359.786947 375.850511 374.846763 412.208123 401.649646 439.011006 
C 428.452528 465.813888 464.81014 480.873704 502.71514 480.873704 
L 502.71514 480.873704 
z
" clip-path="url(#pb1368e0fce)" style="fill: none; stroke-dasharray: 1.5,2.475; stroke-dashoffset: 0; stroke: #333333; stroke-width: 1.5; stroke-linejoin: miter"/>
   </g>
   <g id="patch_4">
    <path d="M 438.795709 593.623236 
C 472.698972 593.623236 505.218209 580.153327 529.191435 556.1801 
C 553.164662 532.206873 566.634571 499.687636 566.634571 465.784373 
C 566.634571 431.881111 553.164662 399.361874 529.191435 375.388647 
C 505.218209 351.41542 472.698972 337.945511 438.795709 337.945511 
C 404.892446 337.945511 372.373209 351.41542 348.399983 375.388647 
C 324.426756 399.361874 310.956847 431.881111 310.956847 465.784373 
C 310.956847 499.687636 324.426756 532.206873 348.399983 556.1801 
C 372.373209 580.153327 404.892446 593.623236 438.795709 593.623236 
L 438.795709 593.623236 
z
" clip-path="url(#pb1368e0fce)" style="fill: none; stroke-dasharray: 1.5,2.475; stroke-dashoffset: 0; stroke: #cc0099; stroke-width: 1.5; stroke-linejoin: miter"/>
   </g>
   <g id="patch_5">
    <path d="M 360.043722 617.276146 
C 431.851985 617.276146 500.728834 588.746421 551.504943 537.970312 
C 602.281053 487.194203 630.810778 418.317353 630.810778 346.509091 
C 630.810778 274.700828 602.281053 205.823979 551.504943 155.04787 
C 500.728834 104.27176 431.851985 75.742035 360.043722 75.742035 
C 288.23546 75.742035 219.35861 104.27176 168.582501 155.04787 
C 117.806392 205.823979 89.276667 274.700828 89.276667 346.509091 
C 89.276667 418.317353 117.806392 487.194203 168.582501 537.970312 
C 219.35861 588.746421 288.23546 617.276146 360.043722 617.276146 
L 360.043722 617.276146 
z
" clip-path="url(#pb1368e0fce)" style="fill: none; stroke-dasharray: 1.5,2.475; stroke-dashoffset: 0; stroke: #cc0099; stroke-width: 1.5; stroke-linejoin: miter"/>
   </g>
   <g id="patch_6">
    <path d="M 502.71514 465.784373 
C 536.618403 465.784373 569.13764 452.314464 593.110867 428.341237 
C 617.084093 404.368011 630.554002 371.848774 630.554002 337.945511 
C 630.554002 304.042248 617.084093 271.523011 593.110867 247.549784 
C 569.13764 223.576558 536.618403 210.106649 502.71514 210.106649 
C 468.811878 210.106649 436.292641 223.576558 412.319414 247.549784 
C 388.346187 271.523011 374.876278 304.042248 374.876278 337.945511 
C 374.876278 371.848774 388.346187 404.368011 412.319414 428.341237 
C 436.292641 452.314464 468.811878 465.784373 502.71514 465.784373 
L 502.71514 465.784373 
z
" clip-path="url(#pb1368e0fce)" style="fill: none; stroke-dasharray: 1.5,2.475; stroke-dashoffset: 0; stroke: #cc0099; stroke-width: 1.5; stroke-linejoin: miter"/>
   </g>
   <g id="patch_7">
    <path d="M 438.795709 593.623236 
C 472.698972 593.623236 505.218209 580.153327 529.191435 556.1801 
C 553.164662 532.206873 566.634571 499.687636 566.634571 465.784373 
C 566.634571 431.881111 553.164662 399.361874 529.191435 375.388647 
C 505.218209 351.41542 472.698972 337.945511 438.795709 337.945511 
C 404.892446 337.945511 372.373209 351.41542 348.399983 375.388647 
C 324.426756 399.361874 310.956847 431.881111 310.956847 465.784373 
C 310.956847 499.687636 324.426756 532.206873 348.399983 556.1801 
C 372.373209 580.153327 404.892446 593.623236 438.795709 593.623236 
L 438.795709 593.623236 
z
" clip-path="url(#pb1368e0fce)" style="fill: none; stroke: #cc0099; stroke-width: 1.5; stroke-linejoin: miter"/>
   </g>
   <g id="line2d_5">
    <path d="M 438.795709 465.784373 
L 566.634571 465.784373 
" clip-path="url(#pb1368e0fce)" style="fill: none; stroke: #ffcc00; stroke-opacity: 0.6; stroke-width: 5; stroke-linecap: square"/>
   </g>
   <g id="line2d_6">
    <path d="M 502.71514 337.945511 
L 566.634571 337.945511 
" clip-path="url(#pb1368e0fce)" style="fill: none; stroke: #ffcc00; stroke-opacity: 0.6; stroke-width: 5; stroke-linecap: square"/>
   </g>
   <g id="line2d_7">
    <path d="M 580.449725 680.329091 
L 139.637719 12.689091 
" clip-path="url(#pb1368e0fce)" style="fill: none; stroke-dasharray: 1.5,2.475; stroke-dashoffset: 0; stroke: #999999; stroke-width: 1.5"/>
   </g>
   <g id="line2d_8">
    <path d="M 33.64 366.100852 
L 701.28 326.027034 
" clip-path="url(#pb1368e0fce)" style="fill: none; stroke-dasharray: 1.5,2.475; stroke-dashoffset: 0; stroke: #999999; stroke-width: 1.5"/>
   </g>
   <g id="line2d_9">
    <path d="M 33.64 337.945511 
L 701.28 337.945511 
" clip-path="url(#pb1368e0fce)" style="fill: none; stroke-dasharray: 1.5,2.475; stroke-dashoffset: 0; stroke: #999999; stroke-width: 1.5"/>
   </g>
   <g id="line2d_10">
    <defs>
     <path id="m4a6e403577" d="M 0 7.5 
C 1.989023 7.5 3.896849 6.709753 5.303301 5.303301 
C 6.709753 3.896849 7.5 1.989023 7.5 0 
C 7.5 -1.989023 6.709753 -3.896849 5.303301 -5.303301 
C 3.896849 -6.709753 1.989023 -7.5 0 -7.5 
C -1.989023 -7.5 -3.896849 -6.709753 -5.303301 -5.303301 
C -6.709753 -3.896849 -7.5 -1.989023 -7.5 0 
C -7.5 1.989023 -6.709753 3.896849 -5.303301 5.303301 
C -3.896849 6.709753 -1.989023 7.5 0 7.5 
z
" style="stroke: #ffff00; stroke-opacity: 0.6"/>
    </defs>
    <g clip-path="url(#pb1368e0fce)">
     <use xlink:href="#m4a6e403577" x="438.795709" y="337.945511" style="fill-opacity: 0; stroke: #ffff00; stroke-opacity: 0.6"/>
    </g>
   </g>
   <g id="line2d_11">
    <path d="M 33.64 337.945511 
L 701.28 337.945511 
" clip-path="url(#pb1368e0fce)" style="fill: none; stroke: #999999; stroke-width: 1.5; stroke-linecap: square"/>
   </g>
   <g id="line2d_12">
    <defs>
     <path id="mda5e2b8079" d="M 0 2 
C 0.530406 2 1.03916 1.789267 1.414214 1.414214 
C 1.789267 1.03916 2 0.530406 2 0 
C 2 -0.530406 1.789267 -1.03916 1.414214 -1.414214 
C 1.03916 -1.789267 0.530406 -2 0 -2 
C -0.530406 -2 -1.03916 -1.789267 -1.414214 -1.414214 
C -1.789267 -1.03916 -2 -0.530406 -2 0 
C -2 0.530406 -1.789267 1.03916 -1.414214 1.414214 
C -1.03916 1.789267 -0.530406 2 0 2 
z
" style="stroke: #000000"/>
    </defs>
    <g clip-path="url(#pb1368e0fce)">
     <use xlink:href="#mda5e2b8079" x="438.795709" y="465.784373" style="stroke: #000000"/>
    </g>
   </g>
   <g id="line2d_13">
    <g clip-path="url(#pb1368e0fce)">
     <use xlink:href="#mda5e2b8079" x="566.634571" y="465.784373" style="stroke: #000000"/>
    </g>
   </g>
   <g id="line2d_14">
    <g clip-path="url(#pb1368e0fce)">
     <use xlink:href="#mda5e2b8079" x="502.71514" y="337.945511" style="stroke: #000000"/>
    </g>
   </g>
   <g id="line2d_15">
    <g clip-path="url(#pb1368e0fce)">
     <use xlink:href="#mda5e2b8079" x="566.634571" y="337.945511" style="stroke: #000000"/>
    </g>
   </g>
   <g id="line2d_16">
    <g clip-path="url(#pb1368e0fce)">
     <use xlink:href="#mda5e2b8079" x="360.043722" y="346.509091" style="stroke: #000000"/>
    </g>
   </g>
   <g id="line2d_17">
    <g clip-path="url(#pb1368e0fce)">
     <use xlink:href="#mda5e2b8079" x="581.467127" y="457.220793" style="stroke: #000000"/>
    </g>
   </g>
   <g id="line2d_18">
    <g clip-path="url(#pb1368e0fce)">
     <use xlink:href="#mda5e2b8079" x="368.357791" y="359.101318" style="stroke: #000000"/>
    </g>
   </g>
   <g id="line2d_19">
    <g clip-path="url(#pb1368e0fce)">
     <use xlink:href="#mda5e2b8079" x="509.233627" y="572.467429" style="stroke: #000000"/>
    </g>
   </g>
   <g id="line2d_20">
    <g clip-path="url(#pb1368e0fce)">
     <use xlink:href="#mda5e2b8079" x="210.853817" y="120.550753" style="stroke: #000000"/>
    </g>
   </g>
   <g id="line2d_21">
    <g clip-path="url(#pb1368e0fce)">
     <use xlink:href="#mda5e2b8079" x="399.477132" y="344.142176" style="stroke: #000000"/>
    </g>
   </g>
   <g id="line2d_22">
    <g clip-path="url(#pb1368e0fce)">
     <use xlink:href="#mda5e2b8079" x="463.28173" y="340.312426" style="stroke: #000000"/>
    </g>
   </g>
   <g id="line2d_23">
    <g clip-path="url(#pb1368e0fce)">
     <use xlink:href="#mda5e2b8079" x="89.763109" y="362.73217" style="stroke: #000000"/>
    </g>
   </g>
   <g id="line2d_24">
    <g clip-path="url(#pb1368e0fce)">
     <use xlink:href="#mda5e2b8079" x="630.324336" y="330.286012" style="stroke: #000000"/>
    </g>
   </g>
   <g id="line2d_25">
    <g clip-path="url(#pb1368e0fce)">
     <use xlink:href="#mda5e2b8079" x="417.029195" y="432.817496" style="stroke: #000000"/>
    </g>
   </g>
   <g id="line2d_26">
    <g clip-path="url(#pb1368e0fce)">
     <use xlink:href="#mda5e2b8079" x="381.810236" y="379.475968" style="stroke: #000000"/>
    </g>
   </g>
   <g id="line2d_27">
    <g clip-path="url(#pb1368e0fce)">
     <use xlink:href="#mda5e2b8079" x="375.947587" y="354.461023" style="stroke: #000000"/>
    </g>
   </g>
   <g id="line2d_28">
    <g clip-path="url(#pb1368e0fce)">
     <use xlink:href="#mda5e2b8079" x="565.563262" y="449.268861" style="stroke: #000000"/>
    </g>
   </g>
   <g id="line2d_29">
    <g clip-path="url(#pb1368e0fce)">
     <use xlink:href="#mda5e2b8079" x="375.105945" y="345.60501" style="stroke: #000000"/>
    </g>
   </g>
   <g id="line2d_30">
    <g clip-path="url(#pb1368e0fce)">
     <use xlink:href="#mda5e2b8079" x="354.389584" y="337.945511" style="stroke: #000000"/>
    </g>
   </g>
   <g id="line2d_31">
    <g clip-path="url(#pb1368e0fce)">
     <use xlink:href="#mda5e2b8079" x="438.795709" y="337.945511" style="stroke: #000000"/>
    </g>
   </g>
   <g id="line2d_32">
    <defs>
     <path id="m73d09b9468" d="M 0 1.25 
C 0.331504 1.25 0.649475 1.118292 0.883883 0.883883 
C 1.118292 0.649475 1.25 0.331504 1.25 0 
C 1.25 -0.331504 1.118292 -0.649475 0.883883 -0.883883 
C 0.649475 -1.118292 0.331504 -1.25 0 -1.25 
C -0.331504 -1.25 -0.649475 -1.118292 -0.883883 -0.883883 
C -1.118292 -0.649475 -1.25 -0.331504 -1.25 0 
C -1.25 0.331504 -1.118292 0.649475 -0.883883 0.883883 
C -0.649475 1.118292 -0.331504 1.25 0 1.25 
z
" style="stroke: #ffffff"/>
    </defs>
    <g clip-path="url(#pb1368e0fce)">
     <use xlink:href="#m73d09b9468" x="438.795709" y="465.784373" style="fill: #ffffff; stroke: #ffffff"/>
    </g>
   </g>
   <g id="line2d_33">
    <g clip-path="url(#pb1368e0fce)">
     <use xlink:href="#m73d09b9468" x="566.634571" y="465.784373" style="fill: #ffffff; stroke: #ffffff"/>
    </g>
   </g>
   <g id="line2d_34">
    <g clip-path="url(#pb1368e0fce)">
     <use xlink:href="#m73d09b9468" x="502.71514" y="337.945511" style="fill: #ffffff; stroke: #ffffff"/>
    </g>
   </g>
   <g id="line2d_35">
    <g clip-path="url(#pb1368e0fce)">
     <use xlink:href="#m73d09b9468" x="566.634571" y="337.945511" style="fill: #ffffff; stroke: #ffffff"/>
    </g>
   </g>
   <g id="line2d_36">
    <g clip-path="url(#pb1368e0fce)">
     <use xlink:href="#m73d09b9468" x="360.043722" y="346.509091" style="fill: #ffffff; stroke: #ffffff"/>
    </g>
   </g>
   <g id="line2d_37">
    <g clip-path="url(#pb1368e0fce)">
     <use xlink:href="#m73d09b9468" x="581.467127" y="457.220793" style="fill: #ffffff; stroke: #ffffff"/>
    </g>
   </g>
   <g id="line2d_38">
    <g clip-path="url(#pb1368e0fce)">
     <use xlink:href="#m73d09b9468" x="368.357791" y="359.101318" style="fill: #ffffff; stroke: #ffffff"/>
    </g>
   </g>
   <g id="line2d_39">
    <g clip-path="url(#pb1368e0fce)">
     <use xlink:href="#m73d09b9468" x="509.233627" y="572.467429" style="fill: #ffffff; stroke: #ffffff"/>
    </g>
   </g>
   <g id="line2d_40">
    <g clip-path="url(#pb1368e0fce)">
     <use xlink:href="#m73d09b9468" x="210.853817" y="120.550753" style="fill: #ffffff; stroke: #ffffff"/>
    </g>
   </g>
   <g id="line2d_41">
    <g clip-path="url(#pb1368e0fce)">
     <use xlink:href="#m73d09b9468" x="399.477132" y="344.142176" style="fill: #ffffff; stroke: #ffffff"/>
    </g>
   </g>
   <g id="line2d_42">
    <g clip-path="url(#pb1368e0fce)">
     <use xlink:href="#m73d09b9468" x="463.28173" y="340.312426" style="fill: #ffffff; stroke: #ffffff"/>
    </g>
   </g>
   <g id="line2d_43">
    <g clip-path="url(#pb1368e0fce)">
     <use xlink:href="#m73d09b9468" x="89.763109" y="362.73217" style="fill: #ffffff; stroke: #ffffff"/>
    </g>
   </g>
   <g id="line2d_44">
    <g clip-path="url(#pb1368e0fce)">
     <use xlink:href="#m73d09b9468" x="630.324336" y="330.286012" style="fill: #ffffff; stroke: #ffffff"/>
    </g>
   </g>
   <g id="line2d_45">
    <g clip-path="url(#pb1368e0fce)">
     <use xlink:href="#m73d09b9468" x="417.029195" y="432.817496" style="fill: #ffffff; stroke: #ffffff"/>
    </g>
   </g>
   <g id="line2d_46">
    <g clip-path="url(#pb1368e0fce)">
     <use xlink:href="#m73d09b9468" x="381.810236" y="379.475968" style="fill: #ffffff; stroke: #ffffff"/>
    </g>
   </g>
   <g id="line2d_47">
    <g clip-path="url(#pb1368e0fce)">
     <use xlink:href="#m73d09b9468" x="375.947587" y="354.461023" style="fill: #ffffff; stroke: #ffffff"/>
    </g>
   </g>
   <g id="line2d_48">
    <g clip-path="url(#pb1368e0fce)">
     <use xlink:href="#m73d09b9468" x="565.563262" y="449.268861" style="fill: #ffffff; stroke: #ffffff"/>
    </g>
   </g>
   <g id="line2d_49">
    <g clip-path="url(#pb1368e0fce)">
     <use xlink:href="#m73d09b9468" x="375.105945" y="345.60501" style="fill: #ffffff; stroke: #ffffff"/>
    </g>
   </g>
   <g id="line2d_50">
    <g clip-path="url(#pb1368e0fce)">
     <use xlink:href="#m73d09b9468" x="354.389584" y="337.945511" style="fill: #ffffff; stroke: #ffffff"/>
    </g>
   </g>
   <g id="line2d_51">
    <g clip-path="url(#pb1368e0fce)">
     <use xlink:href="#m73d09b9468" x="438.795709" y="337.945511" style="fill: #ffffff; stroke: #ffffff"/>
    </g>
   </g>
  </g>
  <g id="axes_2">
   <g id="text_1">
    <!-- $\left[ \ 0, \ 1 \ \right]$ -->
    <g style="fill: #ffffff" transform="translate(332.06 736.067841) scale(0.2 -0.2)">
     <defs>
      <path id="DejaVuSans-5b" d="M 550 4863 
L 1875 4863 
L 1875 4416 
L 1125 4416 
L 1125 -397 
L 1875 -397 
L 1875 -844 
L 550 -844 
L 550 4863 
z
" transform="scale(0.015625)"/>
      <path id="DejaVuSans-30" d="M 2034 4250 
Q 1547 4250 1301 3770 
Q 1056 3291 1056 2328 
Q 1056 1369 1301 889 
Q 1547 409 2034 409 
Q 2525 409 2770 889 
Q 3016 1369 3016 2328 
Q 3016 3291 2770 3770 
Q 2525 4250 2034 4250 
z
M 2034 4750 
Q 2819 4750 3233 4129 
Q 3647 3509 3647 2328 
Q 3647 1150 3233 529 
Q 2819 -91 2034 -91 
Q 1250 -91 836 529 
Q 422 1150 422 2328 
Q 422 3509 836 4129 
Q 1250 4750 2034 4750 
z
" transform="scale(0.015625)"/>
      <path id="DejaVuSans-2c" d="M 750 794 
L 1409 794 
L 1409 256 
L 897 -744 
L 494 -744 
L 750 256 
L 750 794 
z
" transform="scale(0.015625)"/>
      <path id="DejaVuSans-31" d="M 794 531 
L 1825 531 
L 1825 4091 
L 703 3866 
L 703 4441 
L 1819 4666 
L 2450 4666 
L 2450 531 
L 3481 531 
L 3481 0 
L 794 0 
L 794 531 
z
" transform="scale(0.015625)"/>
      <path id="DejaVuSans-5d" d="M 1947 4863 
L 1947 -844 
L 622 -844 
L 622 -397 
L 1369 -397 
L 1369 4416 
L 622 4416 
L 622 4863 
L 1947 4863 
z
" transform="scale(0.015625)"/>
     </defs>
     <use xlink:href="#DejaVuSans-5b" transform="translate(0 0.015625)"/>
     <use xlink:href="#DejaVuSans-30" transform="translate(71.48405 0.015625)"/>
     <use xlink:href="#DejaVuSans-2c" transform="translate(135.107097 0.015625)"/>
     <use xlink:href="#DejaVuSans-31" transform="translate(218.847007 0.015625)"/>
     <use xlink:href="#DejaVuSans-5d" transform="translate(314.940432 0.015625)"/>
    </g>
   </g>
   <g id="text_2">
    <!-- 029 -->
    <g style="fill: #ff0000" transform="translate(33.64 737.171591) scale(0.24 -0.24)">
     <defs>
      <path id="DejaVuSans-32" d="M 1228 531 
L 3431 531 
L 3431 0 
L 469 0 
L 469 531 
Q 828 903 1448 1529 
Q 2069 2156 2228 2338 
Q 2531 2678 2651 2914 
Q 2772 3150 2772 3378 
Q 2772 3750 2511 3984 
Q 2250 4219 1831 4219 
Q 1534 4219 1204 4116 
Q 875 4013 500 3803 
L 500 4441 
Q 881 4594 1212 4672 
Q 1544 4750 1819 4750 
Q 2544 4750 2975 4387 
Q 3406 4025 3406 3419 
Q 3406 3131 3298 2873 
Q 3191 2616 2906 2266 
Q 2828 2175 2409 1742 
Q 1991 1309 1228 531 
z
" transform="scale(0.015625)"/>
      <path id="DejaVuSans-39" d="M 703 97 
L 703 672 
Q 941 559 1184 500 
Q 1428 441 1663 441 
Q 2288 441 2617 861 
Q 2947 1281 2994 2138 
Q 2813 1869 2534 1725 
Q 2256 1581 1919 1581 
Q 1219 1581 811 2004 
Q 403 2428 403 3163 
Q 403 3881 828 4315 
Q 1253 4750 1959 4750 
Q 2769 4750 3195 4129 
Q 3622 3509 3622 2328 
Q 3622 1225 3098 567 
Q 2575 -91 1691 -91 
Q 1453 -91 1209 -44 
Q 966 3 703 97 
z
M 1959 2075 
Q 2384 2075 2632 2365 
Q 2881 2656 2881 3163 
Q 2881 3666 2632 3958 
Q 2384 4250 1959 4250 
Q 1534 4250 1286 3958 
Q 1038 3666 1038 3163 
Q 1038 2656 1286 2365 
Q 1534 2075 1959 2075 
z
" transform="scale(0.015625)"/>
     </defs>
     <use xlink:href="#DejaVuSans-30"/>
     <use xlink:href="#DejaVuSans-32" x="63.623047"/>
     <use xlink:href="#DejaVuSans-39" x="127.246094"/>
    </g>
   </g>
  </g>
 </g>
 <defs>
  <clipPath id="pb1368e0fce">
   <rect x="33.64" y="12.689091" width="667.64" height="667.64"/>
  </clipPath>
 </defs>
</svg>
