<?xml version="1.0" encoding="utf-8" standalone="no"?>
<!DOCTYPE svg PUBLIC "-//W3C//DTD SVG 1.1//EN"
  "http://www.w3.org/Graphics/SVG/1.1/DTD/svg11.dtd">
<svg xmlns:xlink="http://www.w3.org/1999/xlink" width="720pt" height="792pt" viewBox="0 0 720 792" xmlns="http://www.w3.org/2000/svg" version="1.1">
 <metadata>
  <rdf:RDF xmlns:dc="http://purl.org/dc/elements/1.1/" xmlns:cc="http://creativecommons.org/ns#" xmlns:rdf="http://www.w3.org/1999/02/22-rdf-syntax-ns#">
   <cc:Work>
    <dc:type rdf:resource="http://purl.org/dc/dcmitype/StillImage"/>
    <dc:date>2023-02-24T13:43:27.227188</dc:date>
    <dc:format>image/svg+xml</dc:format>
    <dc:creator>
     <cc:Agent>
      <dc:title>Matplotlib v3.6.3, https://matplotlib.org/</dc:title>
     </cc:Agent>
    </dc:creator>
   </cc:Work>
  </rdf:RDF>
 </metadata>
 <defs>
  <style type="text/css">*{stroke-linejoin: round; stroke-linecap: butt}</style>
 </defs>
 <g id="figure_1">
  <g id="patch_1">
   <path d="M 0 792 
L 720 792 
L 720 0 
L 0 0 
z
"/>
  </g>
  <g id="axes_1">
   <g id="line2d_1">
    <defs>
     <path id="m15316d42cb" d="M 0 3.5 
C 0.928211 3.5 1.81853 3.131218 2.474874 2.474874 
C 3.131218 1.81853 3.5 0.928211 3.5 0 
C 3.5 -0.928211 3.131218 -1.81853 2.474874 -2.474874 
C 1.81853 -3.131218 0.928211 -3.5 0 -3.5 
C -0.928211 -3.5 -1.81853 -3.131218 -2.474874 -2.474874 
C -3.131218 -1.81853 -3.5 -0.928211 -3.5 0 
C -3.5 0.928211 -3.131218 1.81853 -2.474874 2.474874 
C -1.81853 3.131218 -0.928211 3.5 0 3.5 
z
" style="stroke: #ffffff; stroke-opacity: 0.4"/>
    </defs>
    <g clip-path="url(#p23532c85f9)">
     <use xlink:href="#m15316d42cb" x="438.795709" y="465.784373" style="fill: #ffffff; fill-opacity: 0.4; stroke: #ffffff; stroke-opacity: 0.4"/>
    </g>
   </g>
   <g id="line2d_2">
    <g clip-path="url(#p23532c85f9)">
     <use xlink:href="#m15316d42cb" x="566.634571" y="465.784373" style="fill: #ffffff; fill-opacity: 0.4; stroke: #ffffff; stroke-opacity: 0.4"/>
    </g>
   </g>
   <g id="line2d_3">
    <g clip-path="url(#p23532c85f9)">
     <use xlink:href="#m15316d42cb" x="502.71514" y="337.945511" style="fill: #ffffff; fill-opacity: 0.4; stroke: #ffffff; stroke-opacity: 0.4"/>
    </g>
   </g>
   <g id="line2d_4">
    <g clip-path="url(#p23532c85f9)">
     <use xlink:href="#m15316d42cb" x="566.634571" y="337.945511" style="fill: #ffffff; fill-opacity: 0.4; stroke: #ffffff; stroke-opacity: 0.4"/>
    </g>
   </g>
   <g id="patch_2">
    <path d="M 438.795709 608.712566 
C 476.700709 608.712566 513.058321 593.65275 539.861204 566.849868 
C 566.664086 540.046985 581.723902 503.689373 581.723902 465.784373 
C 581.723902 427.879373 566.664086 391.521761 539.861204 364.718879 
C 513.058321 337.915996 476.700709 322.85618 438.795709 322.85618 
C 400.890709 322.85618 364.533097 337.915996 337.730214 364.718879 
C 310.927332 391.521761 295.867516 427.879373 295.867516 465.784373 
C 295.867516 503.689373 310.927332 540.046985 337.730214 566.849868 
C 364.533097 593.65275 400.890709 608.712566 438.795709 608.712566 
L 438.795709 608.712566 
z
" clip-path="url(#p23532c85f9)" style="fill: none; stroke-dasharray: 1.5,2.475; stroke-dashoffset: 0; stroke: #333333; stroke-width: 1.5; stroke-linejoin: miter"/>
   </g>
   <g id="patch_3">
    <path d="M 502.71514 480.873704 
C 540.62014 480.873704 576.977752 465.813888 603.780635 439.011006 
C 630.583517 412.208123 645.643333 375.850511 645.643333 337.945511 
C 645.643333 300.040511 630.583517 263.682899 603.780635 236.880016 
C 576.977752 210.077134 540.62014 195.017318 502.71514 195.017318 
C 464.81014 195.017318 428.452528 210.077134 401.649646 236.880016 
C 374.846763 263.682899 359.786947 300.040511 359.786947 337.945511 
C 359.786947 375.850511 374.846763 412.208123 401.649646 439.011006 
C 428.452528 465.813888 464.81014 480.873704 502.71514 480.873704 
L 502.71514 480.873704 
z
" clip-path="url(#p23532c85f9)" style="fill: none; stroke-dasharray: 1.5,2.475; stroke-dashoffset: 0; stroke: #333333; stroke-width: 1.5; stroke-linejoin: miter"/>
   </g>
   <g id="patch_4">
    <path d="M 438.795709 593.623236 
C 472.698972 593.623236 505.218209 580.153327 529.191435 556.1801 
C 553.164662 532.206873 566.634571 499.687636 566.634571 465.784373 
C 566.634571 431.881111 553.164662 399.361874 529.191435 375.388647 
C 505.218209 351.41542 472.698972 337.945511 438.795709 337.945511 
C 404.892446 337.945511 372.373209 351.41542 348.399983 375.388647 
C 324.426756 399.361874 310.956847 431.881111 310.956847 465.784373 
C 310.956847 499.687636 324.426756 532.206873 348.399983 556.1801 
C 372.373209 580.153327 404.892446 593.623236 438.795709 593.623236 
L 438.795709 593.623236 
z
" clip-path="url(#p23532c85f9)" style="fill: none; stroke-dasharray: 1.5,2.475; stroke-dashoffset: 0; stroke: #cc0099; stroke-width: 1.5; stroke-linejoin: miter"/>
   </g>
   <g id="patch_5">
    <path d="M 360.043722 617.276146 
C 431.851985 617.276146 500.728834 588.746421 551.504943 537.970312 
C 602.281053 487.194203 630.810778 418.317353 630.810778 346.509091 
C 630.810778 274.700828 602.281053 205.823979 551.504943 155.04787 
C 500.728834 104.27176 431.851985 75.742035 360.043722 75.742035 
C 288.23546 75.742035 219.35861 104.27176 168.582501 155.04787 
C 117.806392 205.823979 89.276667 274.700828 89.276667 346.509091 
C 89.276667 418.317353 117.806392 487.194203 168.582501 537.970312 
C 219.35861 588.746421 288.23546 617.276146 360.043722 617.276146 
L 360.043722 617.276146 
z
" clip-path="url(#p23532c85f9)" style="fill: none; stroke-dasharray: 1.5,2.475; stroke-dashoffset: 0; stroke: #cc0099; stroke-width: 1.5; stroke-linejoin: miter"/>
   </g>
   <g id="patch_6">
    <path d="M 502.71514 465.784373 
C 536.618403 465.784373 569.13764 452.314464 593.110867 428.341237 
C 617.084093 404.368011 630.554002 371.848774 630.554002 337.945511 
C 630.554002 304.042248 617.084093 271.523011 593.110867 247.549784 
C 569.13764 223.576558 536.618403 210.106649 502.71514 210.106649 
C 468.811878 210.106649 436.292641 223.576558 412.319414 247.549784 
C 388.346187 271.523011 374.876278 304.042248 374.876278 337.945511 
C 374.876278 371.848774 388.346187 404.368011 412.319414 428.341237 
C 436.292641 452.314464 468.811878 465.784373 502.71514 465.784373 
L 502.71514 465.784373 
z
" clip-path="url(#p23532c85f9)" style="fill: none; stroke-dasharray: 1.5,2.475; stroke-dashoffset: 0; stroke: #cc0099; stroke-width: 1.5; stroke-linejoin: miter"/>
   </g>
   <g id="line2d_5">
    <path d="M 438.795709 465.784373 
L 566.634571 465.784373 
" clip-path="url(#p23532c85f9)" style="fill: none; stroke: #ffcc00; stroke-opacity: 0.6; stroke-width: 5; stroke-linecap: square"/>
   </g>
   <g id="line2d_6">
    <path d="M 502.71514 337.945511 
L 566.634571 337.945511 
" clip-path="url(#p23532c85f9)" style="fill: none; stroke: #ffcc00; stroke-opacity: 0.6; stroke-width: 5; stroke-linecap: square"/>
   </g>
   <g id="line2d_7">
    <path d="M 580.449725 680.329091 
L 139.637719 12.689091 
" clip-path="url(#p23532c85f9)" style="fill: none; stroke-dasharray: 1.5,2.475; stroke-dashoffset: 0; stroke: #999999; stroke-width: 1.5"/>
   </g>
   <g id="line2d_8">
    <path d="M 33.64 366.100852 
L 701.28 326.027034 
" clip-path="url(#p23532c85f9)" style="fill: none; stroke-dasharray: 1.5,2.475; stroke-dashoffset: 0; stroke: #999999; stroke-width: 1.5"/>
   </g>
   <g id="line2d_9">
    <path d="M 33.64 337.945511 
L 701.28 337.945511 
" clip-path="url(#p23532c85f9)" style="fill: none; stroke-dasharray: 1.5,2.475; stroke-dashoffset: 0; stroke: #999999; stroke-width: 1.5"/>
   </g>
   <g id="line2d_10">
    <path d="M 502.71514 337.945511 
L 630.554002 337.945511 
" clip-path="url(#p23532c85f9)" style="fill: none; stroke: #ffcc00; stroke-opacity: 0.6; stroke-width: 5; stroke-linecap: square"/>
   </g>
   <g id="line2d_11">
    <defs>
     <path id="m9fd3af2428" d="M 0 2 
C 0.530406 2 1.03916 1.789267 1.414214 1.414214 
C 1.789267 1.03916 2 0.530406 2 0 
C 2 -0.530406 1.789267 -1.03916 1.414214 -1.414214 
C 1.03916 -1.789267 0.530406 -2 0 -2 
C -0.530406 -2 -1.03916 -1.789267 -1.414214 -1.414214 
C -1.789267 -1.03916 -2 -0.530406 -2 0 
C -2 0.530406 -1.789267 1.03916 -1.414214 1.414214 
C -1.03916 1.789267 -0.530406 2 0 2 
z
" style="stroke: #000000"/>
    </defs>
    <g clip-path="url(#p23532c85f9)">
     <use xlink:href="#m9fd3af2428" x="438.795709" y="465.784373" style="stroke: #000000"/>
    </g>
   </g>
   <g id="line2d_12">
    <g clip-path="url(#p23532c85f9)">
     <use xlink:href="#m9fd3af2428" x="566.634571" y="465.784373" style="stroke: #000000"/>
    </g>
   </g>
   <g id="line2d_13">
    <g clip-path="url(#p23532c85f9)">
     <use xlink:href="#m9fd3af2428" x="502.71514" y="337.945511" style="stroke: #000000"/>
    </g>
   </g>
   <g id="line2d_14">
    <g clip-path="url(#p23532c85f9)">
     <use xlink:href="#m9fd3af2428" x="566.634571" y="337.945511" style="stroke: #000000"/>
    </g>
   </g>
   <g id="line2d_15">
    <g clip-path="url(#p23532c85f9)">
     <use xlink:href="#m9fd3af2428" x="360.043722" y="346.509091" style="stroke: #000000"/>
    </g>
   </g>
   <g id="line2d_16">
    <g clip-path="url(#p23532c85f9)">
     <use xlink:href="#m9fd3af2428" x="581.467127" y="457.220793" style="stroke: #000000"/>
    </g>
   </g>
   <g id="line2d_17">
    <g clip-path="url(#p23532c85f9)">
     <use xlink:href="#m9fd3af2428" x="368.357791" y="359.101318" style="stroke: #000000"/>
    </g>
   </g>
   <g id="line2d_18">
    <g clip-path="url(#p23532c85f9)">
     <use xlink:href="#m9fd3af2428" x="509.233627" y="572.467429" style="stroke: #000000"/>
    </g>
   </g>
   <g id="line2d_19">
    <g clip-path="url(#p23532c85f9)">
     <use xlink:href="#m9fd3af2428" x="210.853817" y="120.550753" style="stroke: #000000"/>
    </g>
   </g>
   <g id="line2d_20">
    <g clip-path="url(#p23532c85f9)">
     <use xlink:href="#m9fd3af2428" x="399.477132" y="344.142176" style="stroke: #000000"/>
    </g>
   </g>
   <g id="line2d_21">
    <g clip-path="url(#p23532c85f9)">
     <use xlink:href="#m9fd3af2428" x="463.28173" y="340.312426" style="stroke: #000000"/>
    </g>
   </g>
   <g id="line2d_22">
    <g clip-path="url(#p23532c85f9)">
     <use xlink:href="#m9fd3af2428" x="89.763109" y="362.73217" style="stroke: #000000"/>
    </g>
   </g>
   <g id="line2d_23">
    <g clip-path="url(#p23532c85f9)">
     <use xlink:href="#m9fd3af2428" x="630.324336" y="330.286012" style="stroke: #000000"/>
    </g>
   </g>
   <g id="line2d_24">
    <g clip-path="url(#p23532c85f9)">
     <use xlink:href="#m9fd3af2428" x="417.029195" y="432.817496" style="stroke: #000000"/>
    </g>
   </g>
   <g id="line2d_25">
    <g clip-path="url(#p23532c85f9)">
     <use xlink:href="#m9fd3af2428" x="381.810236" y="379.475968" style="stroke: #000000"/>
    </g>
   </g>
   <g id="line2d_26">
    <g clip-path="url(#p23532c85f9)">
     <use xlink:href="#m9fd3af2428" x="375.947587" y="354.461023" style="stroke: #000000"/>
    </g>
   </g>
   <g id="line2d_27">
    <g clip-path="url(#p23532c85f9)">
     <use xlink:href="#m9fd3af2428" x="565.563262" y="449.268861" style="stroke: #000000"/>
    </g>
   </g>
   <g id="line2d_28">
    <g clip-path="url(#p23532c85f9)">
     <use xlink:href="#m9fd3af2428" x="375.105945" y="345.60501" style="stroke: #000000"/>
    </g>
   </g>
   <g id="line2d_29">
    <g clip-path="url(#p23532c85f9)">
     <use xlink:href="#m9fd3af2428" x="354.389584" y="337.945511" style="stroke: #000000"/>
    </g>
   </g>
   <g id="line2d_30">
    <g clip-path="url(#p23532c85f9)">
     <use xlink:href="#m9fd3af2428" x="438.795709" y="337.945511" style="stroke: #000000"/>
    </g>
   </g>
   <g id="line2d_31">
    <g clip-path="url(#p23532c85f9)">
     <use xlink:href="#m9fd3af2428" x="630.675323" y="337.945511" style="stroke: #000000"/>
    </g>
   </g>
   <g id="line2d_32">
    <g clip-path="url(#p23532c85f9)">
     <use xlink:href="#m9fd3af2428" x="89.412121" y="337.945511" style="stroke: #000000"/>
    </g>
   </g>
   <g id="line2d_33">
    <g clip-path="url(#p23532c85f9)">
     <use xlink:href="#m9fd3af2428" x="374.876278" y="337.945511" style="stroke: #000000"/>
    </g>
   </g>
   <g id="line2d_34">
    <g clip-path="url(#p23532c85f9)">
     <use xlink:href="#m9fd3af2428" x="630.554002" y="337.945511" style="stroke: #000000"/>
    </g>
   </g>
   <g id="line2d_35">
    <defs>
     <path id="mac19dcde8c" d="M 0 1.25 
C 0.331504 1.25 0.649475 1.118292 0.883883 0.883883 
C 1.118292 0.649475 1.25 0.331504 1.25 0 
C 1.25 -0.331504 1.118292 -0.649475 0.883883 -0.883883 
C 0.649475 -1.118292 0.331504 -1.25 0 -1.25 
C -0.331504 -1.25 -0.649475 -1.118292 -0.883883 -0.883883 
C -1.118292 -0.649475 -1.25 -0.331504 -1.25 0 
C -1.25 0.331504 -1.118292 0.649475 -0.883883 0.883883 
C -0.649475 1.118292 -0.331504 1.25 0 1.25 
z
" style="stroke: #ffffff"/>
    </defs>
    <g clip-path="url(#p23532c85f9)">
     <use xlink:href="#mac19dcde8c" x="438.795709" y="465.784373" style="fill: #ffffff; stroke: #ffffff"/>
    </g>
   </g>
   <g id="line2d_36">
    <g clip-path="url(#p23532c85f9)">
     <use xlink:href="#mac19dcde8c" x="566.634571" y="465.784373" style="fill: #ffffff; stroke: #ffffff"/>
    </g>
   </g>
   <g id="line2d_37">
    <g clip-path="url(#p23532c85f9)">
     <use xlink:href="#mac19dcde8c" x="502.71514" y="337.945511" style="fill: #ffffff; stroke: #ffffff"/>
    </g>
   </g>
   <g id="line2d_38">
    <g clip-path="url(#p23532c85f9)">
     <use xlink:href="#mac19dcde8c" x="566.634571" y="337.945511" style="fill: #ffffff; stroke: #ffffff"/>
    </g>
   </g>
   <g id="line2d_39">
    <g clip-path="url(#p23532c85f9)">
     <use xlink:href="#mac19dcde8c" x="360.043722" y="346.509091" style="fill: #ffffff; stroke: #ffffff"/>
    </g>
   </g>
   <g id="line2d_40">
    <g clip-path="url(#p23532c85f9)">
     <use xlink:href="#mac19dcde8c" x="581.467127" y="457.220793" style="fill: #ffffff; stroke: #ffffff"/>
    </g>
   </g>
   <g id="line2d_41">
    <g clip-path="url(#p23532c85f9)">
     <use xlink:href="#mac19dcde8c" x="368.357791" y="359.101318" style="fill: #ffffff; stroke: #ffffff"/>
    </g>
   </g>
   <g id="line2d_42">
    <g clip-path="url(#p23532c85f9)">
     <use xlink:href="#mac19dcde8c" x="509.233627" y="572.467429" style="fill: #ffffff; stroke: #ffffff"/>
    </g>
   </g>
   <g id="line2d_43">
    <g clip-path="url(#p23532c85f9)">
     <use xlink:href="#mac19dcde8c" x="210.853817" y="120.550753" style="fill: #ffffff; stroke: #ffffff"/>
    </g>
   </g>
   <g id="line2d_44">
    <g clip-path="url(#p23532c85f9)">
     <use xlink:href="#mac19dcde8c" x="399.477132" y="344.142176" style="fill: #ffffff; stroke: #ffffff"/>
    </g>
   </g>
   <g id="line2d_45">
    <g clip-path="url(#p23532c85f9)">
     <use xlink:href="#mac19dcde8c" x="463.28173" y="340.312426" style="fill: #ffffff; stroke: #ffffff"/>
    </g>
   </g>
   <g id="line2d_46">
    <g clip-path="url(#p23532c85f9)">
     <use xlink:href="#mac19dcde8c" x="89.763109" y="362.73217" style="fill: #ffffff; stroke: #ffffff"/>
    </g>
   </g>
   <g id="line2d_47">
    <g clip-path="url(#p23532c85f9)">
     <use xlink:href="#mac19dcde8c" x="630.324336" y="330.286012" style="fill: #ffffff; stroke: #ffffff"/>
    </g>
   </g>
   <g id="line2d_48">
    <g clip-path="url(#p23532c85f9)">
     <use xlink:href="#mac19dcde8c" x="417.029195" y="432.817496" style="fill: #ffffff; stroke: #ffffff"/>
    </g>
   </g>
   <g id="line2d_49">
    <g clip-path="url(#p23532c85f9)">
     <use xlink:href="#mac19dcde8c" x="381.810236" y="379.475968" style="fill: #ffffff; stroke: #ffffff"/>
    </g>
   </g>
   <g id="line2d_50">
    <g clip-path="url(#p23532c85f9)">
     <use xlink:href="#mac19dcde8c" x="375.947587" y="354.461023" style="fill: #ffffff; stroke: #ffffff"/>
    </g>
   </g>
   <g id="line2d_51">
    <g clip-path="url(#p23532c85f9)">
     <use xlink:href="#mac19dcde8c" x="565.563262" y="449.268861" style="fill: #ffffff; stroke: #ffffff"/>
    </g>
   </g>
   <g id="line2d_52">
    <g clip-path="url(#p23532c85f9)">
     <use xlink:href="#mac19dcde8c" x="375.105945" y="345.60501" style="fill: #ffffff; stroke: #ffffff"/>
    </g>
   </g>
   <g id="line2d_53">
    <g clip-path="url(#p23532c85f9)">
     <use xlink:href="#mac19dcde8c" x="354.389584" y="337.945511" style="fill: #ffffff; stroke: #ffffff"/>
    </g>
   </g>
   <g id="line2d_54">
    <g clip-path="url(#p23532c85f9)">
     <use xlink:href="#mac19dcde8c" x="438.795709" y="337.945511" style="fill: #ffffff; stroke: #ffffff"/>
    </g>
   </g>
   <g id="line2d_55">
    <g clip-path="url(#p23532c85f9)">
     <use xlink:href="#mac19dcde8c" x="630.675323" y="337.945511" style="fill: #ffffff; stroke: #ffffff"/>
    </g>
   </g>
   <g id="line2d_56">
    <g clip-path="url(#p23532c85f9)">
     <use xlink:href="#mac19dcde8c" x="89.412121" y="337.945511" style="fill: #ffffff; stroke: #ffffff"/>
    </g>
   </g>
   <g id="line2d_57">
    <g clip-path="url(#p23532c85f9)">
     <use xlink:href="#mac19dcde8c" x="374.876278" y="337.945511" style="fill: #ffffff; stroke: #ffffff"/>
    </g>
   </g>
   <g id="line2d_58">
    <g clip-path="url(#p23532c85f9)">
     <use xlink:href="#mac19dcde8c" x="630.554002" y="337.945511" style="fill: #ffffff; stroke: #ffffff"/>
    </g>
   </g>
  </g>
  <g id="axes_2">
   <g id="text_1">
    <!-- elements: 35 | points: 24 -->
    <g style="fill: #ffffff" transform="translate(242.033437 735.833466) scale(0.2 -0.2)">
     <defs>
      <path id="DejaVuSans-65" d="M 3597 1894 
L 3597 1613 
L 953 1613 
Q 991 1019 1311 708 
Q 1631 397 2203 397 
Q 2534 397 2845 478 
Q 3156 559 3463 722 
L 3463 178 
Q 3153 47 2828 -22 
Q 2503 -91 2169 -91 
Q 1331 -91 842 396 
Q 353 884 353 1716 
Q 353 2575 817 3079 
Q 1281 3584 2069 3584 
Q 2775 3584 3186 3129 
Q 3597 2675 3597 1894 
z
M 3022 2063 
Q 3016 2534 2758 2815 
Q 2500 3097 2075 3097 
Q 1594 3097 1305 2825 
Q 1016 2553 972 2059 
L 3022 2063 
z
" transform="scale(0.015625)"/>
      <path id="DejaVuSans-6c" d="M 603 4863 
L 1178 4863 
L 1178 0 
L 603 0 
L 603 4863 
z
" transform="scale(0.015625)"/>
      <path id="DejaVuSans-6d" d="M 3328 2828 
Q 3544 3216 3844 3400 
Q 4144 3584 4550 3584 
Q 5097 3584 5394 3201 
Q 5691 2819 5691 2113 
L 5691 0 
L 5113 0 
L 5113 2094 
Q 5113 2597 4934 2840 
Q 4756 3084 4391 3084 
Q 3944 3084 3684 2787 
Q 3425 2491 3425 1978 
L 3425 0 
L 2847 0 
L 2847 2094 
Q 2847 2600 2669 2842 
Q 2491 3084 2119 3084 
Q 1678 3084 1418 2786 
Q 1159 2488 1159 1978 
L 1159 0 
L 581 0 
L 581 3500 
L 1159 3500 
L 1159 2956 
Q 1356 3278 1631 3431 
Q 1906 3584 2284 3584 
Q 2666 3584 2933 3390 
Q 3200 3197 3328 2828 
z
" transform="scale(0.015625)"/>
      <path id="DejaVuSans-6e" d="M 3513 2113 
L 3513 0 
L 2938 0 
L 2938 2094 
Q 2938 2591 2744 2837 
Q 2550 3084 2163 3084 
Q 1697 3084 1428 2787 
Q 1159 2491 1159 1978 
L 1159 0 
L 581 0 
L 581 3500 
L 1159 3500 
L 1159 2956 
Q 1366 3272 1645 3428 
Q 1925 3584 2291 3584 
Q 2894 3584 3203 3211 
Q 3513 2838 3513 2113 
z
" transform="scale(0.015625)"/>
      <path id="DejaVuSans-74" d="M 1172 4494 
L 1172 3500 
L 2356 3500 
L 2356 3053 
L 1172 3053 
L 1172 1153 
Q 1172 725 1289 603 
Q 1406 481 1766 481 
L 2356 481 
L 2356 0 
L 1766 0 
Q 1100 0 847 248 
Q 594 497 594 1153 
L 594 3053 
L 172 3053 
L 172 3500 
L 594 3500 
L 594 4494 
L 1172 4494 
z
" transform="scale(0.015625)"/>
      <path id="DejaVuSans-73" d="M 2834 3397 
L 2834 2853 
Q 2591 2978 2328 3040 
Q 2066 3103 1784 3103 
Q 1356 3103 1142 2972 
Q 928 2841 928 2578 
Q 928 2378 1081 2264 
Q 1234 2150 1697 2047 
L 1894 2003 
Q 2506 1872 2764 1633 
Q 3022 1394 3022 966 
Q 3022 478 2636 193 
Q 2250 -91 1575 -91 
Q 1294 -91 989 -36 
Q 684 19 347 128 
L 347 722 
Q 666 556 975 473 
Q 1284 391 1588 391 
Q 1994 391 2212 530 
Q 2431 669 2431 922 
Q 2431 1156 2273 1281 
Q 2116 1406 1581 1522 
L 1381 1569 
Q 847 1681 609 1914 
Q 372 2147 372 2553 
Q 372 3047 722 3315 
Q 1072 3584 1716 3584 
Q 2034 3584 2315 3537 
Q 2597 3491 2834 3397 
z
" transform="scale(0.015625)"/>
      <path id="DejaVuSans-3a" d="M 750 794 
L 1409 794 
L 1409 0 
L 750 0 
L 750 794 
z
M 750 3309 
L 1409 3309 
L 1409 2516 
L 750 2516 
L 750 3309 
z
" transform="scale(0.015625)"/>
      <path id="DejaVuSans-20" transform="scale(0.015625)"/>
      <path id="DejaVuSans-33" d="M 2597 2516 
Q 3050 2419 3304 2112 
Q 3559 1806 3559 1356 
Q 3559 666 3084 287 
Q 2609 -91 1734 -91 
Q 1441 -91 1130 -33 
Q 819 25 488 141 
L 488 750 
Q 750 597 1062 519 
Q 1375 441 1716 441 
Q 2309 441 2620 675 
Q 2931 909 2931 1356 
Q 2931 1769 2642 2001 
Q 2353 2234 1838 2234 
L 1294 2234 
L 1294 2753 
L 1863 2753 
Q 2328 2753 2575 2939 
Q 2822 3125 2822 3475 
Q 2822 3834 2567 4026 
Q 2313 4219 1838 4219 
Q 1578 4219 1281 4162 
Q 984 4106 628 3988 
L 628 4550 
Q 988 4650 1302 4700 
Q 1616 4750 1894 4750 
Q 2613 4750 3031 4423 
Q 3450 4097 3450 3541 
Q 3450 3153 3228 2886 
Q 3006 2619 2597 2516 
z
" transform="scale(0.015625)"/>
      <path id="DejaVuSans-35" d="M 691 4666 
L 3169 4666 
L 3169 4134 
L 1269 4134 
L 1269 2991 
Q 1406 3038 1543 3061 
Q 1681 3084 1819 3084 
Q 2600 3084 3056 2656 
Q 3513 2228 3513 1497 
Q 3513 744 3044 326 
Q 2575 -91 1722 -91 
Q 1428 -91 1123 -41 
Q 819 9 494 109 
L 494 744 
Q 775 591 1075 516 
Q 1375 441 1709 441 
Q 2250 441 2565 725 
Q 2881 1009 2881 1497 
Q 2881 1984 2565 2268 
Q 2250 2553 1709 2553 
Q 1456 2553 1204 2497 
Q 953 2441 691 2322 
L 691 4666 
z
" transform="scale(0.015625)"/>
      <path id="DejaVuSans-7c" d="M 1344 4891 
L 1344 -1509 
L 813 -1509 
L 813 4891 
L 1344 4891 
z
" transform="scale(0.015625)"/>
      <path id="DejaVuSans-70" d="M 1159 525 
L 1159 -1331 
L 581 -1331 
L 581 3500 
L 1159 3500 
L 1159 2969 
Q 1341 3281 1617 3432 
Q 1894 3584 2278 3584 
Q 2916 3584 3314 3078 
Q 3713 2572 3713 1747 
Q 3713 922 3314 415 
Q 2916 -91 2278 -91 
Q 1894 -91 1617 61 
Q 1341 213 1159 525 
z
M 3116 1747 
Q 3116 2381 2855 2742 
Q 2594 3103 2138 3103 
Q 1681 3103 1420 2742 
Q 1159 2381 1159 1747 
Q 1159 1113 1420 752 
Q 1681 391 2138 391 
Q 2594 391 2855 752 
Q 3116 1113 3116 1747 
z
" transform="scale(0.015625)"/>
      <path id="DejaVuSans-6f" d="M 1959 3097 
Q 1497 3097 1228 2736 
Q 959 2375 959 1747 
Q 959 1119 1226 758 
Q 1494 397 1959 397 
Q 2419 397 2687 759 
Q 2956 1122 2956 1747 
Q 2956 2369 2687 2733 
Q 2419 3097 1959 3097 
z
M 1959 3584 
Q 2709 3584 3137 3096 
Q 3566 2609 3566 1747 
Q 3566 888 3137 398 
Q 2709 -91 1959 -91 
Q 1206 -91 779 398 
Q 353 888 353 1747 
Q 353 2609 779 3096 
Q 1206 3584 1959 3584 
z
" transform="scale(0.015625)"/>
      <path id="DejaVuSans-69" d="M 603 3500 
L 1178 3500 
L 1178 0 
L 603 0 
L 603 3500 
z
M 603 4863 
L 1178 4863 
L 1178 4134 
L 603 4134 
L 603 4863 
z
" transform="scale(0.015625)"/>
      <path id="DejaVuSans-32" d="M 1228 531 
L 3431 531 
L 3431 0 
L 469 0 
L 469 531 
Q 828 903 1448 1529 
Q 2069 2156 2228 2338 
Q 2531 2678 2651 2914 
Q 2772 3150 2772 3378 
Q 2772 3750 2511 3984 
Q 2250 4219 1831 4219 
Q 1534 4219 1204 4116 
Q 875 4013 500 3803 
L 500 4441 
Q 881 4594 1212 4672 
Q 1544 4750 1819 4750 
Q 2544 4750 2975 4387 
Q 3406 4025 3406 3419 
Q 3406 3131 3298 2873 
Q 3191 2616 2906 2266 
Q 2828 2175 2409 1742 
Q 1991 1309 1228 531 
z
" transform="scale(0.015625)"/>
      <path id="DejaVuSans-34" d="M 2419 4116 
L 825 1625 
L 2419 1625 
L 2419 4116 
z
M 2253 4666 
L 3047 4666 
L 3047 1625 
L 3713 1625 
L 3713 1100 
L 3047 1100 
L 3047 0 
L 2419 0 
L 2419 1100 
L 313 1100 
L 313 1709 
L 2253 4666 
z
" transform="scale(0.015625)"/>
     </defs>
     <use xlink:href="#DejaVuSans-65"/>
     <use xlink:href="#DejaVuSans-6c" x="61.523438"/>
     <use xlink:href="#DejaVuSans-65" x="89.306641"/>
     <use xlink:href="#DejaVuSans-6d" x="150.830078"/>
     <use xlink:href="#DejaVuSans-65" x="248.242188"/>
     <use xlink:href="#DejaVuSans-6e" x="309.765625"/>
     <use xlink:href="#DejaVuSans-74" x="373.144531"/>
     <use xlink:href="#DejaVuSans-73" x="412.353516"/>
     <use xlink:href="#DejaVuSans-3a" x="464.453125"/>
     <use xlink:href="#DejaVuSans-20" x="498.144531"/>
     <use xlink:href="#DejaVuSans-33" x="529.931641"/>
     <use xlink:href="#DejaVuSans-35" x="593.554688"/>
     <use xlink:href="#DejaVuSans-20" x="657.177734"/>
     <use xlink:href="#DejaVuSans-7c" x="688.964844"/>
     <use xlink:href="#DejaVuSans-20" x="722.65625"/>
     <use xlink:href="#DejaVuSans-70" x="754.443359"/>
     <use xlink:href="#DejaVuSans-6f" x="817.919922"/>
     <use xlink:href="#DejaVuSans-69" x="879.101562"/>
     <use xlink:href="#DejaVuSans-6e" x="906.884766"/>
     <use xlink:href="#DejaVuSans-74" x="970.263672"/>
     <use xlink:href="#DejaVuSans-73" x="1009.472656"/>
     <use xlink:href="#DejaVuSans-3a" x="1061.572266"/>
     <use xlink:href="#DejaVuSans-20" x="1095.263672"/>
     <use xlink:href="#DejaVuSans-32" x="1127.050781"/>
     <use xlink:href="#DejaVuSans-34" x="1190.673828"/>
    </g>
   </g>
  </g>
 </g>
 <defs>
  <clipPath id="p23532c85f9">
   <rect x="33.64" y="12.689091" width="667.64" height="667.64"/>
  </clipPath>
 </defs>
</svg>
